M48
; DRILL file {KiCad 5.1.5-52549c5~84~ubuntu18.04.1} date lun. 09 mars 2020 20:44:49 CET
; FORMAT={-:-/ absolute / inch / decimal}
; #@! TF.CreationDate,2020-03-09T20:44:49+01:00
; #@! TF.GenerationSoftware,Kicad,Pcbnew,5.1.5-52549c5~84~ubuntu18.04.1
; #@! TF.FileFunction,Plated,1,2,PTH
FMAT,2
INCH
T1C0.0157
T2C0.0315
T3C0.0394
T4C0.0787
%
G90
G05
T1
X1.4611Y-3.0997
X1.518Y-3.053
X3.8183Y-3.7271
X3.8425Y-3.6938
X4.823Y-2.4496
X4.8646Y-2.4
X7.1548Y-3.5152
X7.7502Y-3.9893
X9.499Y-2.4082
T2
X10.35Y-4.25
X10.35Y-4.35
X10.35Y-4.45
X10.35Y-4.55
X10.35Y-4.65
X10.35Y-4.75
X10.35Y-4.85
X10.35Y-4.95
X10.85Y-4.25
X10.85Y-4.35
X10.85Y-4.45
X10.85Y-4.55
X10.85Y-4.65
X10.85Y-4.75
X10.85Y-4.85
X10.85Y-4.95
X9.9Y-3.45
X9.9Y-3.5878
X8.2Y-2.25
X8.2Y-2.35
X8.2Y-2.45
X8.2Y-2.55
X8.2Y-2.65
X8.2Y-2.75
X8.2Y-2.85
X8.2Y-2.95
X8.7Y-2.25
X8.7Y-2.35
X8.7Y-2.45
X8.7Y-2.55
X8.7Y-2.65
X8.7Y-2.75
X8.7Y-2.85
X8.7Y-2.95
X5.05Y-2.2
X5.05Y-2.3
X5.05Y-2.4
X5.05Y-2.5
X5.05Y-2.6
X5.05Y-2.7
X5.05Y-2.8
X5.05Y-2.9
X5.55Y-2.2
X5.55Y-2.3
X5.55Y-2.4
X5.55Y-2.5
X5.55Y-2.6
X5.55Y-2.7
X5.55Y-2.8
X5.55Y-2.9
X5.5Y-3.5
X5.5Y-3.8
X5.6Y-3.5
X5.6Y-3.8
X5.7Y-3.5
X5.7Y-3.8
X5.8Y-3.5
X5.8Y-3.8
X5.9Y-3.5
X5.9Y-3.8
X6.0Y-3.5
X6.0Y-3.8
X6.1Y-3.5
X6.1Y-3.8
X6.2Y-3.5
X6.2Y-3.8
X6.3Y-3.5
X6.3Y-3.8
X6.4Y-3.5
X6.4Y-3.8
X6.5Y-3.5
X6.5Y-3.8
X6.6Y-3.5
X6.6Y-3.8
X6.7Y-3.5
X6.7Y-3.8
X6.8Y-3.5
X6.8Y-3.8
X9.3Y-4.25
X9.3Y-4.35
X9.3Y-4.45
X9.3Y-4.55
X9.3Y-4.65
X9.3Y-4.75
X9.3Y-4.85
X9.3Y-4.95
X9.8Y-4.25
X9.8Y-4.35
X9.8Y-4.45
X9.8Y-4.55
X9.8Y-4.65
X9.8Y-4.75
X9.8Y-4.85
X9.8Y-4.95
X2.95Y-2.2
X2.95Y-2.3
X2.95Y-2.4
X2.95Y-2.5
X2.95Y-2.6
X2.95Y-2.7
X2.95Y-2.8
X2.95Y-2.9
X3.45Y-2.2
X3.45Y-2.3
X3.45Y-2.4
X3.45Y-2.5
X3.45Y-2.6
X3.45Y-2.7
X3.45Y-2.8
X3.45Y-2.9
X3.3Y-3.5
X3.3Y-3.8
X3.4Y-3.5
X3.4Y-3.8
X3.5Y-3.5
X3.5Y-3.8
X3.6Y-3.5
X3.6Y-3.8
X3.7Y-3.5
X3.7Y-3.8
X3.8Y-3.5
X3.8Y-3.8
X3.9Y-3.5
X3.9Y-3.8
X4.0Y-3.5
X4.0Y-3.8
X4.1Y-3.5
X4.1Y-3.8
X4.2Y-3.5
X4.2Y-3.8
X4.3Y-3.5
X4.3Y-3.8
X4.4Y-3.5
X4.4Y-3.8
X4.5Y-3.5
X4.5Y-3.8
X4.6Y-3.5
X4.6Y-3.8
X1.9Y-2.2
X1.9Y-2.3
X1.9Y-2.4
X1.9Y-2.5
X1.9Y-2.6
X1.9Y-2.7
X1.9Y-2.8
X1.9Y-2.9
X2.4Y-2.2
X2.4Y-2.3
X2.4Y-2.4
X2.4Y-2.5
X2.4Y-2.6
X2.4Y-2.7
X2.4Y-2.8
X2.4Y-2.9
X6.15Y-4.25
X6.15Y-4.35
X6.15Y-4.45
X6.15Y-4.55
X6.15Y-4.65
X6.15Y-4.75
X6.15Y-4.85
X6.15Y-4.95
X6.65Y-4.25
X6.65Y-4.35
X6.65Y-4.45
X6.65Y-4.55
X6.65Y-4.65
X6.65Y-4.75
X6.65Y-4.85
X6.65Y-4.95
X3.0Y-4.25
X3.0Y-4.35
X3.0Y-4.45
X3.0Y-4.55
X3.0Y-4.65
X3.0Y-4.75
X3.0Y-4.85
X3.0Y-4.95
X3.5Y-4.25
X3.5Y-4.35
X3.5Y-4.45
X3.5Y-4.55
X3.5Y-4.65
X3.5Y-4.75
X3.5Y-4.85
X3.5Y-4.95
X6.1Y-2.25
X6.1Y-2.35
X6.1Y-2.45
X6.1Y-2.55
X6.1Y-2.65
X6.1Y-2.75
X6.1Y-2.85
X6.1Y-2.95
X6.6Y-2.25
X6.6Y-2.35
X6.6Y-2.45
X6.6Y-2.55
X6.6Y-2.65
X6.6Y-2.75
X6.6Y-2.85
X6.6Y-2.95
X7.1Y-2.25
X7.1Y-2.35
X7.1Y-2.45
X7.1Y-2.55
X7.1Y-2.65
X7.1Y-2.75
X7.1Y-2.85
X7.1Y-2.95
X7.6Y-2.25
X7.6Y-2.35
X7.6Y-2.45
X7.6Y-2.55
X7.6Y-2.65
X7.6Y-2.75
X7.6Y-2.85
X7.6Y-2.95
X7.55Y-3.5
X7.55Y-3.8
X7.65Y-3.5
X7.65Y-3.8
X7.75Y-3.5
X7.75Y-3.8
X7.85Y-3.5
X7.85Y-3.8
X7.95Y-3.5
X7.95Y-3.8
X8.05Y-3.5
X8.05Y-3.8
X8.15Y-3.5
X8.15Y-3.8
X8.25Y-3.5
X8.25Y-3.8
X8.35Y-3.5
X8.35Y-3.8
X8.45Y-3.5
X8.45Y-3.8
X8.55Y-3.5
X8.55Y-3.8
X8.65Y-3.5
X8.65Y-3.8
X8.75Y-3.5
X8.75Y-3.8
X8.85Y-3.5
X8.85Y-3.8
X4.05Y-2.2
X4.05Y-2.3
X4.05Y-2.4
X4.05Y-2.5
X4.05Y-2.6
X4.05Y-2.7
X4.05Y-2.8
X4.05Y-2.9
X4.55Y-2.2
X4.55Y-2.3
X4.55Y-2.4
X4.55Y-2.5
X4.55Y-2.6
X4.55Y-2.7
X4.55Y-2.8
X4.55Y-2.9
X0.95Y-4.25
X0.95Y-4.35
X0.95Y-4.45
X0.95Y-4.55
X0.95Y-4.65
X0.95Y-4.75
X0.95Y-4.85
X0.95Y-4.95
X1.45Y-4.25
X1.45Y-4.35
X1.45Y-4.45
X1.45Y-4.55
X1.45Y-4.65
X1.45Y-4.75
X1.45Y-4.85
X1.45Y-4.95
X5.1Y-4.25
X5.1Y-4.35
X5.1Y-4.45
X5.1Y-4.55
X5.1Y-4.65
X5.1Y-4.75
X5.1Y-4.85
X5.1Y-4.95
X5.6Y-4.25
X5.6Y-4.35
X5.6Y-4.45
X5.6Y-4.55
X5.6Y-4.65
X5.6Y-4.75
X5.6Y-4.85
X5.6Y-4.95
X9.25Y-2.25
X9.25Y-2.35
X9.25Y-2.45
X9.25Y-2.55
X9.25Y-2.65
X9.25Y-2.75
X9.25Y-2.85
X9.25Y-2.95
X9.75Y-2.25
X9.75Y-2.35
X9.75Y-2.45
X9.75Y-2.55
X9.75Y-2.65
X9.75Y-2.75
X9.75Y-2.85
X9.75Y-2.95
X4.05Y-4.25
X4.05Y-4.35
X4.05Y-4.45
X4.05Y-4.55
X4.05Y-4.65
X4.05Y-4.75
X4.05Y-4.85
X4.05Y-4.95
X4.55Y-4.25
X4.55Y-4.35
X4.55Y-4.45
X4.55Y-4.55
X4.55Y-4.65
X4.55Y-4.75
X4.55Y-4.85
X4.55Y-4.95
X2.0Y-4.25
X2.0Y-4.35
X2.0Y-4.45
X2.0Y-4.55
X2.0Y-4.65
X2.0Y-4.75
X2.0Y-4.85
X2.0Y-4.95
X2.5Y-4.25
X2.5Y-4.35
X2.5Y-4.45
X2.5Y-4.55
X2.5Y-4.65
X2.5Y-4.75
X2.5Y-4.85
X2.5Y-4.95
X1.05Y-3.5
X1.05Y-3.8
X1.15Y-3.5
X1.15Y-3.8
X1.25Y-3.5
X1.25Y-3.8
X1.35Y-3.5
X1.35Y-3.8
X1.45Y-3.5
X1.45Y-3.8
X1.55Y-3.5
X1.55Y-3.8
X1.65Y-3.5
X1.65Y-3.8
X1.75Y-3.5
X1.75Y-3.8
X1.85Y-3.5
X1.85Y-3.8
X1.95Y-3.5
X1.95Y-3.8
X2.05Y-3.5
X2.05Y-3.8
X2.15Y-3.5
X2.15Y-3.8
X2.25Y-3.5
X2.25Y-3.8
X2.35Y-3.5
X2.35Y-3.8
X7.2Y-4.25
X7.2Y-4.35
X7.2Y-4.45
X7.2Y-4.55
X7.2Y-4.65
X7.2Y-4.75
X7.2Y-4.85
X7.2Y-4.95
X7.7Y-4.25
X7.7Y-4.35
X7.7Y-4.45
X7.7Y-4.55
X7.7Y-4.65
X7.7Y-4.75
X7.7Y-4.85
X7.7Y-4.95
X0.9Y-2.2
X0.9Y-2.3
X0.9Y-2.4
X0.9Y-2.5
X0.9Y-2.6
X0.9Y-2.7
X0.9Y-2.8
X0.9Y-2.9
X1.4Y-2.2
X1.4Y-2.3
X1.4Y-2.4
X1.4Y-2.5
X1.4Y-2.6
X1.4Y-2.7
X1.4Y-2.8
X1.4Y-2.9
X10.25Y-2.25
X10.25Y-2.35
X10.25Y-2.45
X10.25Y-2.55
X10.25Y-2.65
X10.25Y-2.75
X10.25Y-2.85
X10.25Y-2.95
X10.75Y-2.25
X10.75Y-2.35
X10.75Y-2.45
X10.75Y-2.55
X10.75Y-2.65
X10.75Y-2.75
X10.75Y-2.85
X10.75Y-2.95
X10.4Y-3.45
X10.4Y-3.5878
X8.25Y-4.25
X8.25Y-4.35
X8.25Y-4.45
X8.25Y-4.55
X8.25Y-4.65
X8.25Y-4.75
X8.25Y-4.85
X8.25Y-4.95
X8.75Y-4.25
X8.75Y-4.35
X8.75Y-4.45
X8.75Y-4.55
X8.75Y-4.65
X8.75Y-4.75
X8.75Y-4.85
X8.75Y-4.95
T3
X9.3Y-3.7
X9.45Y-3.7
X9.3Y-3.35
X9.45Y-3.35
T4
X10.9Y-3.4
X10.9Y-3.65
X1.75Y-1.75
X2.0Y-1.75
X2.25Y-1.75
X2.5Y-1.75
X8.15Y-5.45
X8.4Y-5.45
X8.65Y-5.45
X8.9Y-5.45
X5.0Y-5.45
X5.25Y-5.45
X5.5Y-5.45
X5.75Y-5.45
X8.05Y-1.75
X8.3Y-1.75
X8.55Y-1.75
X8.8Y-1.75
X1.85Y-5.45
X2.1Y-5.45
X2.35Y-5.45
X2.6Y-5.45
X2.8Y-1.75
X3.05Y-1.75
X3.3Y-1.75
X3.55Y-1.75
X3.95Y-5.45
X4.2Y-5.45
X4.45Y-5.45
X4.7Y-5.45
X10.25Y-5.45
X10.5Y-5.45
X10.75Y-5.45
X11.0Y-5.45
X9.2Y-5.45
X9.45Y-5.45
X9.7Y-5.45
X9.95Y-5.45
X6.05Y-5.45
X6.3Y-5.45
X6.55Y-5.45
X6.8Y-5.45
X9.1Y-1.75
X9.35Y-1.75
X9.6Y-1.75
X9.85Y-1.75
X2.9Y-5.45
X3.15Y-5.45
X3.4Y-5.45
X3.65Y-5.45
X5.95Y-1.75
X6.2Y-1.75
X6.45Y-1.75
X6.7Y-1.75
X10.15Y-1.75
X10.4Y-1.75
X10.65Y-1.75
X10.9Y-1.75
X4.9Y-1.75
X5.15Y-1.75
X5.4Y-1.75
X5.65Y-1.75
X0.8Y-5.45
X1.05Y-5.45
X1.3Y-5.45
X1.55Y-5.45
X7.0Y-1.75
X7.25Y-1.75
X7.5Y-1.75
X7.75Y-1.75
X3.85Y-1.75
X4.1Y-1.75
X4.35Y-1.75
X4.6Y-1.75
X0.7Y-1.75
X0.95Y-1.75
X1.2Y-1.75
X1.45Y-1.75
X7.1Y-5.45
X7.35Y-5.45
X7.6Y-5.45
X7.85Y-5.45
T0
M30
