G04 #@! TF.GenerationSoftware,KiCad,Pcbnew,5.1.5-52549c5~84~ubuntu18.04.1*
G04 #@! TF.CreationDate,2020-03-09T20:44:28+01:00*
G04 #@! TF.ProjectId,solarOSE_kicad,736f6c61-724f-4534-955f-6b696361642e,rev?*
G04 #@! TF.SameCoordinates,Original*
G04 #@! TF.FileFunction,Copper,L1,Top*
G04 #@! TF.FilePolarity,Positive*
%FSLAX46Y46*%
G04 Gerber Fmt 4.6, Leading zero omitted, Abs format (unit mm)*
G04 Created by KiCad (PCBNEW 5.1.5-52549c5~84~ubuntu18.04.1) date 2020-03-09 20:44:28*
%MOMM*%
%LPD*%
G04 APERTURE LIST*
%ADD10C,1.600000*%
%ADD11R,1.600000X1.600000*%
%ADD12C,2.499360*%
%ADD13R,2.499360X2.499360*%
%ADD14O,1.600000X1.600000*%
%ADD15R,4.500880X4.500880*%
%ADD16C,4.500880*%
%ADD17C,0.800000*%
%ADD18C,0.250000*%
%ADD19C,2.000000*%
%ADD20C,1.000000*%
G04 APERTURE END LIST*
D10*
X264160000Y-91130000D03*
D11*
X264160000Y-87630000D03*
D10*
X251460000Y-91130000D03*
D11*
X251460000Y-87630000D03*
D12*
X240030000Y-93980000D03*
D13*
X236220000Y-93980000D03*
D12*
X240030000Y-85090000D03*
D13*
X236220000Y-85090000D03*
D14*
X35560000Y-55880000D03*
X22860000Y-73660000D03*
X35560000Y-58420000D03*
X22860000Y-71120000D03*
X35560000Y-60960000D03*
X22860000Y-68580000D03*
X35560000Y-63500000D03*
X22860000Y-66040000D03*
X35560000Y-66040000D03*
X22860000Y-63500000D03*
X35560000Y-68580000D03*
X22860000Y-60960000D03*
X35560000Y-71120000D03*
X22860000Y-58420000D03*
X35560000Y-73660000D03*
D11*
X22860000Y-55880000D03*
X48260000Y-55880000D03*
D14*
X60960000Y-73660000D03*
X48260000Y-58420000D03*
X60960000Y-71120000D03*
X48260000Y-60960000D03*
X60960000Y-68580000D03*
X48260000Y-63500000D03*
X60960000Y-66040000D03*
X48260000Y-66040000D03*
X60960000Y-63500000D03*
X48260000Y-68580000D03*
X60960000Y-60960000D03*
X48260000Y-71120000D03*
X60960000Y-58420000D03*
X48260000Y-73660000D03*
X60960000Y-55880000D03*
D11*
X74930000Y-55880000D03*
D14*
X87630000Y-73660000D03*
X74930000Y-58420000D03*
X87630000Y-71120000D03*
X74930000Y-60960000D03*
X87630000Y-68580000D03*
X74930000Y-63500000D03*
X87630000Y-66040000D03*
X74930000Y-66040000D03*
X87630000Y-63500000D03*
X74930000Y-68580000D03*
X87630000Y-60960000D03*
X74930000Y-71120000D03*
X87630000Y-58420000D03*
X74930000Y-73660000D03*
X87630000Y-55880000D03*
X115570000Y-55880000D03*
X102870000Y-73660000D03*
X115570000Y-58420000D03*
X102870000Y-71120000D03*
X115570000Y-60960000D03*
X102870000Y-68580000D03*
X115570000Y-63500000D03*
X102870000Y-66040000D03*
X115570000Y-66040000D03*
X102870000Y-63500000D03*
X115570000Y-68580000D03*
X102870000Y-60960000D03*
X115570000Y-71120000D03*
X102870000Y-58420000D03*
X115570000Y-73660000D03*
D11*
X102870000Y-55880000D03*
D14*
X140970000Y-55880000D03*
X128270000Y-73660000D03*
X140970000Y-58420000D03*
X128270000Y-71120000D03*
X140970000Y-60960000D03*
X128270000Y-68580000D03*
X140970000Y-63500000D03*
X128270000Y-66040000D03*
X140970000Y-66040000D03*
X128270000Y-63500000D03*
X140970000Y-68580000D03*
X128270000Y-60960000D03*
X140970000Y-71120000D03*
X128270000Y-58420000D03*
X140970000Y-73660000D03*
D11*
X128270000Y-55880000D03*
X154940000Y-57150000D03*
D14*
X167640000Y-74930000D03*
X154940000Y-59690000D03*
X167640000Y-72390000D03*
X154940000Y-62230000D03*
X167640000Y-69850000D03*
X154940000Y-64770000D03*
X167640000Y-67310000D03*
X154940000Y-67310000D03*
X167640000Y-64770000D03*
X154940000Y-69850000D03*
X167640000Y-62230000D03*
X154940000Y-72390000D03*
X167640000Y-59690000D03*
X154940000Y-74930000D03*
X167640000Y-57150000D03*
X193040000Y-57150000D03*
X180340000Y-74930000D03*
X193040000Y-59690000D03*
X180340000Y-72390000D03*
X193040000Y-62230000D03*
X180340000Y-69850000D03*
X193040000Y-64770000D03*
X180340000Y-67310000D03*
X193040000Y-67310000D03*
X180340000Y-64770000D03*
X193040000Y-69850000D03*
X180340000Y-62230000D03*
X193040000Y-72390000D03*
X180340000Y-59690000D03*
X193040000Y-74930000D03*
D11*
X180340000Y-57150000D03*
X208280000Y-57150000D03*
D14*
X220980000Y-74930000D03*
X208280000Y-59690000D03*
X220980000Y-72390000D03*
X208280000Y-62230000D03*
X220980000Y-69850000D03*
X208280000Y-64770000D03*
X220980000Y-67310000D03*
X208280000Y-67310000D03*
X220980000Y-64770000D03*
X208280000Y-69850000D03*
X220980000Y-62230000D03*
X208280000Y-72390000D03*
X220980000Y-59690000D03*
X208280000Y-74930000D03*
X220980000Y-57150000D03*
D11*
X234950000Y-57150000D03*
D14*
X247650000Y-74930000D03*
X234950000Y-59690000D03*
X247650000Y-72390000D03*
X234950000Y-62230000D03*
X247650000Y-69850000D03*
X234950000Y-64770000D03*
X247650000Y-67310000D03*
X234950000Y-67310000D03*
X247650000Y-64770000D03*
X234950000Y-69850000D03*
X247650000Y-62230000D03*
X234950000Y-72390000D03*
X247650000Y-59690000D03*
X234950000Y-74930000D03*
X247650000Y-57150000D03*
X273050000Y-57150000D03*
X260350000Y-74930000D03*
X273050000Y-59690000D03*
X260350000Y-72390000D03*
X273050000Y-62230000D03*
X260350000Y-69850000D03*
X273050000Y-64770000D03*
X260350000Y-67310000D03*
X273050000Y-67310000D03*
X260350000Y-64770000D03*
X273050000Y-69850000D03*
X260350000Y-62230000D03*
X273050000Y-72390000D03*
X260350000Y-59690000D03*
X273050000Y-74930000D03*
D11*
X260350000Y-57150000D03*
X24130000Y-107950000D03*
D14*
X36830000Y-125730000D03*
X24130000Y-110490000D03*
X36830000Y-123190000D03*
X24130000Y-113030000D03*
X36830000Y-120650000D03*
X24130000Y-115570000D03*
X36830000Y-118110000D03*
X24130000Y-118110000D03*
X36830000Y-115570000D03*
X24130000Y-120650000D03*
X36830000Y-113030000D03*
X24130000Y-123190000D03*
X36830000Y-110490000D03*
X24130000Y-125730000D03*
X36830000Y-107950000D03*
X63500000Y-107950000D03*
X50800000Y-125730000D03*
X63500000Y-110490000D03*
X50800000Y-123190000D03*
X63500000Y-113030000D03*
X50800000Y-120650000D03*
X63500000Y-115570000D03*
X50800000Y-118110000D03*
X63500000Y-118110000D03*
X50800000Y-115570000D03*
X63500000Y-120650000D03*
X50800000Y-113030000D03*
X63500000Y-123190000D03*
X50800000Y-110490000D03*
X63500000Y-125730000D03*
D11*
X50800000Y-107950000D03*
X76200000Y-107950000D03*
D14*
X88900000Y-125730000D03*
X76200000Y-110490000D03*
X88900000Y-123190000D03*
X76200000Y-113030000D03*
X88900000Y-120650000D03*
X76200000Y-115570000D03*
X88900000Y-118110000D03*
X76200000Y-118110000D03*
X88900000Y-115570000D03*
X76200000Y-120650000D03*
X88900000Y-113030000D03*
X76200000Y-123190000D03*
X88900000Y-110490000D03*
X76200000Y-125730000D03*
X88900000Y-107950000D03*
X115570000Y-107950000D03*
X102870000Y-125730000D03*
X115570000Y-110490000D03*
X102870000Y-123190000D03*
X115570000Y-113030000D03*
X102870000Y-120650000D03*
X115570000Y-115570000D03*
X102870000Y-118110000D03*
X115570000Y-118110000D03*
X102870000Y-115570000D03*
X115570000Y-120650000D03*
X102870000Y-113030000D03*
X115570000Y-123190000D03*
X102870000Y-110490000D03*
X115570000Y-125730000D03*
D11*
X102870000Y-107950000D03*
X129540000Y-107950000D03*
D14*
X142240000Y-125730000D03*
X129540000Y-110490000D03*
X142240000Y-123190000D03*
X129540000Y-113030000D03*
X142240000Y-120650000D03*
X129540000Y-115570000D03*
X142240000Y-118110000D03*
X129540000Y-118110000D03*
X142240000Y-115570000D03*
X129540000Y-120650000D03*
X142240000Y-113030000D03*
X129540000Y-123190000D03*
X142240000Y-110490000D03*
X129540000Y-125730000D03*
X142240000Y-107950000D03*
X168910000Y-107950000D03*
X156210000Y-125730000D03*
X168910000Y-110490000D03*
X156210000Y-123190000D03*
X168910000Y-113030000D03*
X156210000Y-120650000D03*
X168910000Y-115570000D03*
X156210000Y-118110000D03*
X168910000Y-118110000D03*
X156210000Y-115570000D03*
X168910000Y-120650000D03*
X156210000Y-113030000D03*
X168910000Y-123190000D03*
X156210000Y-110490000D03*
X168910000Y-125730000D03*
D11*
X156210000Y-107950000D03*
X182880000Y-107950000D03*
D14*
X195580000Y-125730000D03*
X182880000Y-110490000D03*
X195580000Y-123190000D03*
X182880000Y-113030000D03*
X195580000Y-120650000D03*
X182880000Y-115570000D03*
X195580000Y-118110000D03*
X182880000Y-118110000D03*
X195580000Y-115570000D03*
X182880000Y-120650000D03*
X195580000Y-113030000D03*
X182880000Y-123190000D03*
X195580000Y-110490000D03*
X182880000Y-125730000D03*
X195580000Y-107950000D03*
X222250000Y-107950000D03*
X209550000Y-125730000D03*
X222250000Y-110490000D03*
X209550000Y-123190000D03*
X222250000Y-113030000D03*
X209550000Y-120650000D03*
X222250000Y-115570000D03*
X209550000Y-118110000D03*
X222250000Y-118110000D03*
X209550000Y-115570000D03*
X222250000Y-120650000D03*
X209550000Y-113030000D03*
X222250000Y-123190000D03*
X209550000Y-110490000D03*
X222250000Y-125730000D03*
D11*
X209550000Y-107950000D03*
X236220000Y-107950000D03*
D14*
X248920000Y-125730000D03*
X236220000Y-110490000D03*
X248920000Y-123190000D03*
X236220000Y-113030000D03*
X248920000Y-120650000D03*
X236220000Y-115570000D03*
X248920000Y-118110000D03*
X236220000Y-118110000D03*
X248920000Y-115570000D03*
X236220000Y-120650000D03*
X248920000Y-113030000D03*
X236220000Y-123190000D03*
X248920000Y-110490000D03*
X236220000Y-125730000D03*
X248920000Y-107950000D03*
X275590000Y-107950000D03*
X262890000Y-125730000D03*
X275590000Y-110490000D03*
X262890000Y-123190000D03*
X275590000Y-113030000D03*
X262890000Y-120650000D03*
X275590000Y-115570000D03*
X262890000Y-118110000D03*
X275590000Y-118110000D03*
X262890000Y-115570000D03*
X275590000Y-120650000D03*
X262890000Y-113030000D03*
X275590000Y-123190000D03*
X262890000Y-110490000D03*
X275590000Y-125730000D03*
D11*
X262890000Y-107950000D03*
D15*
X276860000Y-92710000D03*
D16*
X276860000Y-86360000D03*
D15*
X17780000Y-44450000D03*
D16*
X24130000Y-44450000D03*
X30480000Y-44450000D03*
X36830000Y-44450000D03*
X63500000Y-44450000D03*
X57150000Y-44450000D03*
X50800000Y-44450000D03*
D15*
X44450000Y-44450000D03*
X71120000Y-44450000D03*
D16*
X77470000Y-44450000D03*
X83820000Y-44450000D03*
X90170000Y-44450000D03*
D15*
X97790000Y-44450000D03*
D16*
X104140000Y-44450000D03*
X110490000Y-44450000D03*
X116840000Y-44450000D03*
X143510000Y-44450000D03*
X137160000Y-44450000D03*
X130810000Y-44450000D03*
D15*
X124460000Y-44450000D03*
X151130000Y-44450000D03*
D16*
X157480000Y-44450000D03*
X163830000Y-44450000D03*
X170180000Y-44450000D03*
X196850000Y-44450000D03*
X190500000Y-44450000D03*
X184150000Y-44450000D03*
D15*
X177800000Y-44450000D03*
X204470000Y-44450000D03*
D16*
X210820000Y-44450000D03*
X217170000Y-44450000D03*
X223520000Y-44450000D03*
X250190000Y-44450000D03*
X243840000Y-44450000D03*
X237490000Y-44450000D03*
D15*
X231140000Y-44450000D03*
X257810000Y-44450000D03*
D16*
X264160000Y-44450000D03*
X270510000Y-44450000D03*
X276860000Y-44450000D03*
X39370000Y-138430000D03*
X33020000Y-138430000D03*
X26670000Y-138430000D03*
D15*
X20320000Y-138430000D03*
X46990000Y-138430000D03*
D16*
X53340000Y-138430000D03*
X59690000Y-138430000D03*
X66040000Y-138430000D03*
X92710000Y-138430000D03*
X86360000Y-138430000D03*
X80010000Y-138430000D03*
D15*
X73660000Y-138430000D03*
X100330000Y-138430000D03*
D16*
X106680000Y-138430000D03*
X113030000Y-138430000D03*
X119380000Y-138430000D03*
X146050000Y-138430000D03*
X139700000Y-138430000D03*
X133350000Y-138430000D03*
D15*
X127000000Y-138430000D03*
X153670000Y-138430000D03*
D16*
X160020000Y-138430000D03*
X166370000Y-138430000D03*
X172720000Y-138430000D03*
X199390000Y-138430000D03*
X193040000Y-138430000D03*
X186690000Y-138430000D03*
D15*
X180340000Y-138430000D03*
D16*
X226060000Y-138430000D03*
X219710000Y-138430000D03*
X213360000Y-138430000D03*
D15*
X207010000Y-138430000D03*
X233680000Y-138430000D03*
D16*
X240030000Y-138430000D03*
X246380000Y-138430000D03*
X252730000Y-138430000D03*
X279400000Y-138430000D03*
X273050000Y-138430000D03*
X266700000Y-138430000D03*
D15*
X260350000Y-138430000D03*
D11*
X59690000Y-88900000D03*
D14*
X26670000Y-96520000D03*
X57150000Y-88900000D03*
X29210000Y-96520000D03*
X54610000Y-88900000D03*
X31750000Y-96520000D03*
X52070000Y-88900000D03*
X34290000Y-96520000D03*
X49530000Y-88900000D03*
X36830000Y-96520000D03*
X46990000Y-88900000D03*
X39370000Y-96520000D03*
X44450000Y-88900000D03*
X41910000Y-96520000D03*
X41910000Y-88900000D03*
X44450000Y-96520000D03*
X39370000Y-88900000D03*
X46990000Y-96520000D03*
X36830000Y-88900000D03*
X49530000Y-96520000D03*
X34290000Y-88900000D03*
X52070000Y-96520000D03*
X31750000Y-88900000D03*
X54610000Y-96520000D03*
X29210000Y-88900000D03*
X57150000Y-96520000D03*
X26670000Y-88900000D03*
X59690000Y-96520000D03*
X172720000Y-96520000D03*
X139700000Y-88900000D03*
X170180000Y-96520000D03*
X142240000Y-88900000D03*
X167640000Y-96520000D03*
X144780000Y-88900000D03*
X165100000Y-96520000D03*
X147320000Y-88900000D03*
X162560000Y-96520000D03*
X149860000Y-88900000D03*
X160020000Y-96520000D03*
X152400000Y-88900000D03*
X157480000Y-96520000D03*
X154940000Y-88900000D03*
X154940000Y-96520000D03*
X157480000Y-88900000D03*
X152400000Y-96520000D03*
X160020000Y-88900000D03*
X149860000Y-96520000D03*
X162560000Y-88900000D03*
X147320000Y-96520000D03*
X165100000Y-88900000D03*
X144780000Y-96520000D03*
X167640000Y-88900000D03*
X142240000Y-96520000D03*
X170180000Y-88900000D03*
X139700000Y-96520000D03*
D11*
X172720000Y-88900000D03*
X83820000Y-96520000D03*
D14*
X116840000Y-88900000D03*
X86360000Y-96520000D03*
X114300000Y-88900000D03*
X88900000Y-96520000D03*
X111760000Y-88900000D03*
X91440000Y-96520000D03*
X109220000Y-88900000D03*
X93980000Y-96520000D03*
X106680000Y-88900000D03*
X96520000Y-96520000D03*
X104140000Y-88900000D03*
X99060000Y-96520000D03*
X101600000Y-88900000D03*
X101600000Y-96520000D03*
X99060000Y-88900000D03*
X104140000Y-96520000D03*
X96520000Y-88900000D03*
X106680000Y-96520000D03*
X93980000Y-88900000D03*
X109220000Y-96520000D03*
X91440000Y-88900000D03*
X111760000Y-96520000D03*
X88900000Y-88900000D03*
X114300000Y-96520000D03*
X86360000Y-88900000D03*
X116840000Y-96520000D03*
X83820000Y-88900000D03*
X191770000Y-88900000D03*
X224790000Y-96520000D03*
X194310000Y-88900000D03*
X222250000Y-96520000D03*
X196850000Y-88900000D03*
X219710000Y-96520000D03*
X199390000Y-88900000D03*
X217170000Y-96520000D03*
X201930000Y-88900000D03*
X214630000Y-96520000D03*
X204470000Y-88900000D03*
X212090000Y-96520000D03*
X207010000Y-88900000D03*
X209550000Y-96520000D03*
X209550000Y-88900000D03*
X207010000Y-96520000D03*
X212090000Y-88900000D03*
X204470000Y-96520000D03*
X214630000Y-88900000D03*
X201930000Y-96520000D03*
X217170000Y-88900000D03*
X199390000Y-96520000D03*
X219710000Y-88900000D03*
X196850000Y-96520000D03*
X222250000Y-88900000D03*
X194310000Y-96520000D03*
X224790000Y-88900000D03*
D11*
X191770000Y-96520000D03*
D17*
X38558400Y-77545500D03*
X241273600Y-61168100D03*
X37112700Y-78731700D03*
X123561800Y-60961000D03*
X122503400Y-62220900D03*
X181731300Y-89286900D03*
X97600200Y-93822200D03*
X96983600Y-94667800D03*
X196855100Y-101328700D03*
D18*
X54610000Y-88900000D02*
X53484700Y-88900000D01*
X38558400Y-77545500D02*
X42411500Y-77545500D01*
X42411500Y-77545500D02*
X53484700Y-88618700D01*
X53484700Y-88618700D02*
X53484700Y-88900000D01*
D19*
X45959700Y-73660000D02*
X39756600Y-73660000D01*
X39756600Y-73660000D02*
X37436600Y-75980000D01*
X37436600Y-75980000D02*
X27480300Y-75980000D01*
X27480300Y-75980000D02*
X25160300Y-73660000D01*
X48260000Y-73660000D02*
X45959700Y-73660000D01*
X49410200Y-73660000D02*
X48260000Y-73660000D01*
X22860000Y-73660000D02*
X25160300Y-73660000D01*
X180340000Y-74930000D02*
X182640300Y-74930000D01*
X208280000Y-74930000D02*
X205979700Y-74930000D01*
X205979700Y-74930000D02*
X203657000Y-77252700D01*
X203657000Y-77252700D02*
X184963000Y-77252700D01*
X184963000Y-77252700D02*
X182640300Y-74930000D01*
X158510300Y-125730000D02*
X163311000Y-130530700D01*
X163311000Y-130530700D02*
X175779000Y-130530700D01*
X175779000Y-130530700D02*
X180579700Y-125730000D01*
X102870000Y-73660000D02*
X105170300Y-73660000D01*
X128270000Y-73660000D02*
X125969700Y-73660000D01*
X125969700Y-73660000D02*
X121165200Y-78464500D01*
X121165200Y-78464500D02*
X109974800Y-78464500D01*
X109974800Y-78464500D02*
X105170300Y-73660000D01*
X74930000Y-73660000D02*
X77230300Y-73660000D01*
X102870000Y-73660000D02*
X100569700Y-73660000D01*
X100569700Y-73660000D02*
X98239400Y-75990300D01*
X98239400Y-75990300D02*
X79560600Y-75990300D01*
X79560600Y-75990300D02*
X77230300Y-73660000D01*
X49410200Y-73660000D02*
X50560300Y-73660000D01*
X74930000Y-73660000D02*
X72629700Y-73660000D01*
X72629700Y-73660000D02*
X67751200Y-78538500D01*
X67751200Y-78538500D02*
X55438800Y-78538500D01*
X55438800Y-78538500D02*
X50560300Y-73660000D01*
X258049700Y-74930000D02*
X255749400Y-77230300D01*
X255749400Y-77230300D02*
X239550600Y-77230300D01*
X239550600Y-77230300D02*
X237250300Y-74930000D01*
X209550000Y-125730000D02*
X207249700Y-125730000D01*
X209550000Y-125730000D02*
X211850300Y-125730000D01*
X211850300Y-125730000D02*
X214150700Y-128030400D01*
X214150700Y-128030400D02*
X231619300Y-128030400D01*
X231619300Y-128030400D02*
X233919700Y-125730000D01*
X207249700Y-125730000D02*
X204898500Y-128081200D01*
X204898500Y-128081200D02*
X187531500Y-128081200D01*
X187531500Y-128081200D02*
X185180300Y-125730000D01*
X182880000Y-125730000D02*
X185180300Y-125730000D01*
X236220000Y-125730000D02*
X233919700Y-125730000D01*
X237370200Y-125730000D02*
X236220000Y-125730000D01*
X262890000Y-125730000D02*
X265190300Y-125730000D01*
X276860000Y-92710000D02*
X276860000Y-96460700D01*
X276860000Y-96460700D02*
X277926800Y-97527500D01*
X277926800Y-97527500D02*
X277926800Y-126649500D01*
X277926800Y-126649500D02*
X276545900Y-128030400D01*
X276545900Y-128030400D02*
X267490700Y-128030400D01*
X267490700Y-128030400D02*
X265190300Y-125730000D01*
X156210000Y-125730000D02*
X153909700Y-125730000D01*
X129540000Y-125730000D02*
X131840300Y-125730000D01*
X131840300Y-125730000D02*
X134174400Y-128064100D01*
X134174400Y-128064100D02*
X151575600Y-128064100D01*
X151575600Y-128064100D02*
X153909700Y-125730000D01*
X128389900Y-125730000D02*
X129540000Y-125730000D01*
X128389900Y-125730000D02*
X127239700Y-125730000D01*
X156210000Y-125730000D02*
X158510300Y-125730000D01*
X182880000Y-125730000D02*
X180579700Y-125730000D01*
X77250100Y-125730000D02*
X79550500Y-128030400D01*
X79550500Y-128030400D02*
X98269300Y-128030400D01*
X98269300Y-128030400D02*
X100569700Y-125730000D01*
X102870000Y-125730000D02*
X100569700Y-125730000D01*
X77250100Y-125730000D02*
X74916000Y-128064100D01*
X74916000Y-128064100D02*
X55434400Y-128064100D01*
X55434400Y-128064100D02*
X53100300Y-125730000D01*
X127239700Y-125730000D02*
X124888500Y-128081200D01*
X124888500Y-128081200D02*
X107521500Y-128081200D01*
X107521500Y-128081200D02*
X105170300Y-125730000D01*
X102870000Y-125730000D02*
X105170300Y-125730000D01*
X50800000Y-125730000D02*
X53100300Y-125730000D01*
X76200000Y-125730000D02*
X77250100Y-125730000D01*
X50800000Y-125730000D02*
X48499700Y-125730000D01*
X24130000Y-125730000D02*
X26430300Y-125730000D01*
X26430300Y-125730000D02*
X31306500Y-130606200D01*
X31306500Y-130606200D02*
X43623500Y-130606200D01*
X43623500Y-130606200D02*
X48499700Y-125730000D01*
X234950000Y-74930000D02*
X237250300Y-74930000D01*
X260350000Y-74930000D02*
X258049700Y-74930000D01*
X154940000Y-74930000D02*
X157240300Y-74930000D01*
X180340000Y-74930000D02*
X178039700Y-74930000D01*
X178039700Y-74930000D02*
X175735100Y-77234600D01*
X175735100Y-77234600D02*
X159544900Y-77234600D01*
X159544900Y-77234600D02*
X157240300Y-74930000D01*
X237370200Y-125730000D02*
X238520300Y-125730000D01*
X238520300Y-125730000D02*
X240862000Y-128071700D01*
X240862000Y-128071700D02*
X258248000Y-128071700D01*
X258248000Y-128071700D02*
X260589700Y-125730000D01*
X262890000Y-125730000D02*
X260589700Y-125730000D01*
X182880000Y-123190000D02*
X185180300Y-123190000D01*
X185180300Y-107950000D02*
X185180300Y-123190000D01*
X184555200Y-107950000D02*
X185180300Y-107950000D01*
X182880000Y-107950000D02*
X184555200Y-107950000D01*
X177536500Y-57150000D02*
X178039700Y-57150000D01*
X157240300Y-57150000D02*
X159540600Y-54849700D01*
X159540600Y-54849700D02*
X175236200Y-54849700D01*
X175236200Y-54849700D02*
X177536500Y-57150000D01*
X177536500Y-57150000D02*
X177536500Y-71886800D01*
X177536500Y-71886800D02*
X178039700Y-72390000D01*
X180340000Y-72390000D02*
X178039700Y-72390000D01*
X180340000Y-57150000D02*
X178039700Y-57150000D01*
X157240300Y-72390000D02*
X157240300Y-57150000D01*
X182880000Y-123190000D02*
X177300100Y-123190000D01*
X177300100Y-123190000D02*
X172459700Y-128030400D01*
X172459700Y-128030400D02*
X167886900Y-128030400D01*
X167886900Y-128030400D02*
X163046500Y-123190000D01*
X163046500Y-123190000D02*
X158510300Y-123190000D01*
X156210000Y-123190000D02*
X158510300Y-123190000D01*
X156210000Y-107950000D02*
X158510300Y-107950000D01*
X158510300Y-107950000D02*
X158510300Y-123190000D01*
X50560300Y-71120000D02*
X48260000Y-71120000D01*
X74930000Y-71120000D02*
X69399600Y-71120000D01*
X69399600Y-71120000D02*
X64509700Y-76009900D01*
X64509700Y-76009900D02*
X56600400Y-76009900D01*
X56600400Y-76009900D02*
X51710500Y-71120000D01*
X51710500Y-71120000D02*
X50560300Y-71120000D01*
X50560300Y-55880000D02*
X50560300Y-71120000D01*
X48260000Y-55880000D02*
X50560300Y-55880000D01*
X74930000Y-71120000D02*
X77230300Y-71120000D01*
X76080200Y-55880000D02*
X77230300Y-57030100D01*
X77230300Y-57030100D02*
X77230300Y-71120000D01*
X76080200Y-55880000D02*
X77230300Y-55880000D01*
X74930000Y-55880000D02*
X76080200Y-55880000D01*
X50800000Y-123190000D02*
X53100300Y-123190000D01*
X50800000Y-107950000D02*
X53100300Y-107950000D01*
X53100300Y-107950000D02*
X53100300Y-123190000D01*
X260350000Y-72390000D02*
X262650300Y-72390000D01*
X260350000Y-57150000D02*
X262650300Y-57150000D01*
X262650300Y-57150000D02*
X262650300Y-72390000D01*
X259907900Y-57150000D02*
X260350000Y-57150000D01*
X259907900Y-57150000D02*
X258049700Y-57150000D01*
X208280000Y-57150000D02*
X210580300Y-57150000D01*
X208280000Y-72390000D02*
X210580300Y-72390000D01*
X210580300Y-72390000D02*
X210580300Y-57150000D01*
X209550000Y-105649700D02*
X187480600Y-105649700D01*
X187480600Y-105649700D02*
X185180300Y-107950000D01*
X128270000Y-71120000D02*
X121869500Y-71120000D01*
X121869500Y-71120000D02*
X117028600Y-75960900D01*
X117028600Y-75960900D02*
X114547400Y-75960900D01*
X114547400Y-75960900D02*
X109706500Y-71120000D01*
X109706500Y-71120000D02*
X102870000Y-71120000D01*
X260589700Y-107950000D02*
X260589700Y-123190000D01*
X245520100Y-100950200D02*
X253589900Y-100950200D01*
X253589900Y-100950200D02*
X260589700Y-107950000D01*
X262890000Y-123190000D02*
X260589700Y-123190000D01*
X245520100Y-100950200D02*
X238520300Y-107950000D01*
X245520100Y-90580100D02*
X245520100Y-100950200D01*
X262890000Y-107950000D02*
X260589700Y-107950000D01*
X245520100Y-90580100D02*
X240445800Y-85505700D01*
X249159700Y-87630000D02*
X246209600Y-90580100D01*
X246209600Y-90580100D02*
X245520100Y-90580100D01*
X214630000Y-96520000D02*
X214630000Y-94219700D01*
X219710000Y-91200300D02*
X217649400Y-91200300D01*
X217649400Y-91200300D02*
X214630000Y-94219700D01*
X240445800Y-85505700D02*
X234751200Y-91200300D01*
X234751200Y-91200300D02*
X219710000Y-91200300D01*
X209550000Y-107950000D02*
X209550000Y-105649700D01*
X214630000Y-96520000D02*
X214630000Y-100569700D01*
X214630000Y-100569700D02*
X209550000Y-105649700D01*
X240445800Y-85505700D02*
X240030000Y-85090000D01*
X128270000Y-55880000D02*
X130570300Y-55880000D01*
X130570300Y-55880000D02*
X132939900Y-53510400D01*
X132939900Y-53510400D02*
X149000100Y-53510400D01*
X149000100Y-53510400D02*
X152639700Y-57150000D01*
X128270000Y-55880000D02*
X127119900Y-55880000D01*
X102870000Y-123190000D02*
X105170300Y-123190000D01*
X102870000Y-107950000D02*
X105170300Y-107950000D01*
X105170300Y-107950000D02*
X105170300Y-123190000D01*
X102345000Y-107950000D02*
X102870000Y-107950000D01*
X102345000Y-107950000D02*
X100569700Y-107950000D01*
X78500300Y-123190000D02*
X78500300Y-107950000D01*
X100569700Y-107950000D02*
X98269400Y-105649700D01*
X98269400Y-105649700D02*
X80800600Y-105649700D01*
X80800600Y-105649700D02*
X78500300Y-107950000D01*
X76200000Y-123190000D02*
X78500300Y-123190000D01*
X76200000Y-107950000D02*
X78500300Y-107950000D01*
X251460000Y-87630000D02*
X249159700Y-87630000D01*
X238520300Y-123190000D02*
X238520300Y-107950000D01*
X154940000Y-57150000D02*
X152639700Y-57150000D01*
X127119900Y-55880000D02*
X125969700Y-55880000D01*
X154940000Y-57150000D02*
X157240300Y-57150000D01*
X264160000Y-87630000D02*
X275590000Y-87630000D01*
X275590000Y-87630000D02*
X276860000Y-86360000D01*
X251460000Y-87630000D02*
X264160000Y-87630000D01*
X236220000Y-123190000D02*
X238520300Y-123190000D01*
X236220000Y-107950000D02*
X238520300Y-107950000D01*
X219710000Y-88900000D02*
X219710000Y-91200300D01*
X102870000Y-55880000D02*
X105170300Y-55880000D01*
X105170300Y-55880000D02*
X107470600Y-53579700D01*
X107470600Y-53579700D02*
X123669400Y-53579700D01*
X123669400Y-53579700D02*
X125969700Y-55880000D01*
X102345000Y-55880000D02*
X100569700Y-55880000D01*
X102345000Y-55880000D02*
X102870000Y-55880000D01*
X77230300Y-55880000D02*
X79530600Y-53579700D01*
X79530600Y-53579700D02*
X98269400Y-53579700D01*
X98269400Y-53579700D02*
X100569700Y-55880000D01*
X234950000Y-57150000D02*
X237250300Y-57150000D01*
X237250300Y-57150000D02*
X239550600Y-54849700D01*
X239550600Y-54849700D02*
X255749400Y-54849700D01*
X255749400Y-54849700D02*
X258049700Y-57150000D01*
X22860000Y-55880000D02*
X20559700Y-55880000D01*
X22860000Y-71120000D02*
X20559700Y-71120000D01*
X20559700Y-71120000D02*
X20559700Y-55880000D01*
X154940000Y-72390000D02*
X152639700Y-72390000D01*
X152639700Y-72390000D02*
X149860000Y-75169700D01*
X149860000Y-75169700D02*
X149860000Y-88900000D01*
X155326100Y-72390000D02*
X154940000Y-72390000D01*
X155326100Y-72390000D02*
X157240300Y-72390000D01*
X24130000Y-107950000D02*
X21829700Y-107950000D01*
X24130000Y-123190000D02*
X21829700Y-123190000D01*
X21829700Y-123190000D02*
X21829700Y-107950000D01*
D18*
X50800000Y-110490000D02*
X49674700Y-110490000D01*
X49674700Y-110490000D02*
X42054700Y-118110000D01*
X42054700Y-118110000D02*
X36830000Y-118110000D01*
X22860000Y-58420000D02*
X23985300Y-58420000D01*
X23985300Y-58420000D02*
X31605300Y-66040000D01*
X31605300Y-66040000D02*
X35560000Y-66040000D01*
X46606000Y-57891300D02*
X47134700Y-58420000D01*
X59834700Y-62830500D02*
X51253900Y-54249700D01*
X51253900Y-54249700D02*
X47397300Y-54249700D01*
X47397300Y-54249700D02*
X46606000Y-55041000D01*
X46606000Y-55041000D02*
X46606000Y-57891300D01*
X46606000Y-57891300D02*
X38457300Y-66040000D01*
X38457300Y-66040000D02*
X36685300Y-66040000D01*
X48260000Y-58420000D02*
X47134700Y-58420000D01*
X35560000Y-66040000D02*
X36685300Y-66040000D01*
X74930000Y-58420000D02*
X73804700Y-58420000D01*
X59834700Y-62830500D02*
X59834700Y-64070800D01*
X59834700Y-64070800D02*
X60678600Y-64914700D01*
X60678600Y-64914700D02*
X60960000Y-64914700D01*
X73804700Y-58420000D02*
X69994700Y-62230000D01*
X69994700Y-62230000D02*
X60435200Y-62230000D01*
X60435200Y-62230000D02*
X59834700Y-62830500D01*
X262890000Y-110490000D02*
X264015300Y-110490000D01*
X264015300Y-110490000D02*
X271635300Y-118110000D01*
X271635300Y-118110000D02*
X275590000Y-118110000D01*
X241273600Y-61168100D02*
X239795500Y-59690000D01*
X239795500Y-59690000D02*
X234950000Y-59690000D01*
X222112800Y-59690000D02*
X222112800Y-56667700D01*
X222112800Y-56667700D02*
X220969700Y-55524600D01*
X220969700Y-55524600D02*
X207392500Y-55524600D01*
X207392500Y-55524600D02*
X206640200Y-56276900D01*
X206640200Y-56276900D02*
X206640200Y-59175500D01*
X206640200Y-59175500D02*
X207154700Y-59690000D01*
X220980000Y-66184700D02*
X221192500Y-66184700D01*
X221192500Y-66184700D02*
X222112800Y-65264400D01*
X222112800Y-65264400D02*
X222112800Y-59690000D01*
X233824700Y-59690000D02*
X222112800Y-59690000D01*
X220980000Y-67310000D02*
X220980000Y-66184700D01*
X60960000Y-66040000D02*
X60960000Y-64914700D01*
X129540000Y-110490000D02*
X128414700Y-110490000D01*
X128414700Y-110490000D02*
X120794700Y-118110000D01*
X120794700Y-118110000D02*
X115570000Y-118110000D01*
X121741700Y-64625400D02*
X118109900Y-64625400D01*
X118109900Y-64625400D02*
X116695300Y-66040000D01*
X139844700Y-66040000D02*
X138430100Y-64625400D01*
X138430100Y-64625400D02*
X121741700Y-64625400D01*
X121741700Y-64625400D02*
X121741700Y-61737500D01*
X121741700Y-61737500D02*
X125059200Y-58420000D01*
X125059200Y-58420000D02*
X128270000Y-58420000D01*
X140970000Y-66040000D02*
X139844700Y-66040000D01*
X153814700Y-59690000D02*
X147464700Y-66040000D01*
X147464700Y-66040000D02*
X140970000Y-66040000D01*
X115570000Y-66040000D02*
X116695300Y-66040000D01*
X103995300Y-58420000D02*
X111615300Y-66040000D01*
X111615300Y-66040000D02*
X115570000Y-66040000D01*
X247650000Y-67310000D02*
X248775300Y-67310000D01*
X248775300Y-67310000D02*
X256395300Y-59690000D01*
X256395300Y-59690000D02*
X259224700Y-59690000D01*
X260350000Y-59690000D02*
X259224700Y-59690000D01*
X209550000Y-110490000D02*
X210675300Y-110490000D01*
X210675300Y-110490000D02*
X218295300Y-118110000D01*
X218295300Y-118110000D02*
X221124700Y-118110000D01*
X196705300Y-118110000D02*
X204325300Y-110490000D01*
X204325300Y-110490000D02*
X209550000Y-110490000D01*
X222250000Y-118110000D02*
X221124700Y-118110000D01*
X102870000Y-58420000D02*
X103995300Y-58420000D01*
X88755300Y-66040000D02*
X96375300Y-58420000D01*
X96375300Y-58420000D02*
X102870000Y-58420000D01*
X234950000Y-59690000D02*
X233824700Y-59690000D01*
X191914700Y-67310000D02*
X188104700Y-63500000D01*
X188104700Y-63500000D02*
X179985900Y-63500000D01*
X179985900Y-63500000D02*
X179214700Y-62728800D01*
X179214700Y-62728800D02*
X179214700Y-61659200D01*
X179214700Y-61659200D02*
X180058600Y-60815300D01*
X180058600Y-60815300D02*
X180340000Y-60815300D01*
X180340000Y-59690000D02*
X180340000Y-60815300D01*
X193040000Y-67310000D02*
X191914700Y-67310000D01*
X207154700Y-59690000D02*
X199534700Y-67310000D01*
X199534700Y-67310000D02*
X193040000Y-67310000D01*
X153035000Y-108440300D02*
X147320000Y-102725300D01*
X147320000Y-102725300D02*
X147320000Y-97946300D01*
X155084700Y-110490000D02*
X153035000Y-108440300D01*
X153035000Y-108440300D02*
X143365300Y-118110000D01*
X142240000Y-118110000D02*
X143365300Y-118110000D01*
X156210000Y-110490000D02*
X155084700Y-110490000D01*
X147320000Y-97946300D02*
X147320000Y-97645300D01*
X139700000Y-96520000D02*
X141126300Y-97946300D01*
X141126300Y-97946300D02*
X147320000Y-97946300D01*
X222250000Y-118110000D02*
X223375300Y-118110000D01*
X223375300Y-118110000D02*
X230995300Y-110490000D01*
X230995300Y-110490000D02*
X235094700Y-110490000D01*
X236220000Y-110490000D02*
X235094700Y-110490000D01*
X236220000Y-85090000D02*
X234645000Y-85090000D01*
X224790000Y-88900000D02*
X230835000Y-88900000D01*
X230835000Y-88900000D02*
X234645000Y-85090000D01*
X222250000Y-88900000D02*
X224790000Y-88900000D01*
X212090000Y-96520000D02*
X212090000Y-93980000D01*
X212090000Y-93980000D02*
X217170000Y-88900000D01*
X195580000Y-118110000D02*
X196705300Y-118110000D01*
X208280000Y-59690000D02*
X207154700Y-59690000D01*
X147320000Y-96520000D02*
X147320000Y-97645300D01*
X87630000Y-66040000D02*
X88755300Y-66040000D01*
X34290000Y-96520000D02*
X34290000Y-97645300D01*
X36830000Y-118110000D02*
X35704700Y-118110000D01*
X27820100Y-109100100D02*
X27820100Y-104115200D01*
X27820100Y-104115200D02*
X34290000Y-97645300D01*
X35704700Y-118110000D02*
X35704700Y-116984700D01*
X35704700Y-116984700D02*
X27820100Y-109100100D01*
X27820100Y-109100100D02*
X26645200Y-109100100D01*
X26645200Y-109100100D02*
X25255300Y-110490000D01*
X24130000Y-110490000D02*
X25255300Y-110490000D01*
X248920000Y-120650000D02*
X248920000Y-123190000D01*
X154940000Y-59690000D02*
X153814700Y-59690000D01*
X115570000Y-71120000D02*
X115570000Y-68580000D01*
X182880000Y-110490000D02*
X181754700Y-110490000D01*
X181754700Y-110490000D02*
X174134700Y-118110000D01*
X174134700Y-118110000D02*
X168910000Y-118110000D01*
X88900000Y-118110000D02*
X90025300Y-118110000D01*
X90025300Y-118110000D02*
X97645300Y-110490000D01*
X97645300Y-110490000D02*
X102870000Y-110490000D01*
X37112700Y-78731700D02*
X40982100Y-78731700D01*
X40982100Y-78731700D02*
X50800000Y-88549600D01*
X50800000Y-88549600D02*
X50800000Y-89256400D01*
X50800000Y-89256400D02*
X51587800Y-90044200D01*
X51587800Y-90044200D02*
X57701800Y-90044200D01*
X57701800Y-90044200D02*
X58564700Y-89181300D01*
X58564700Y-89181300D02*
X58564700Y-88900000D01*
X59690000Y-88900000D02*
X58564700Y-88900000D01*
X123561800Y-60961000D02*
X124688200Y-59834600D01*
X124688200Y-59834600D02*
X135890100Y-59834600D01*
X135890100Y-59834600D02*
X139844700Y-55880000D01*
X140970000Y-55880000D02*
X139844700Y-55880000D01*
X140970000Y-58420000D02*
X139844700Y-58420000D01*
X122503400Y-62220900D02*
X136043800Y-62220900D01*
X136043800Y-62220900D02*
X139844700Y-58420000D01*
X140970000Y-73660000D02*
X139844700Y-73660000D01*
X52070000Y-96520000D02*
X53195300Y-96520000D01*
X53195300Y-96520000D02*
X53195300Y-96238700D01*
X53195300Y-96238700D02*
X57246200Y-92187800D01*
X57246200Y-92187800D02*
X76471700Y-92187800D01*
X76471700Y-92187800D02*
X85124200Y-83535300D01*
X85124200Y-83535300D02*
X129969400Y-83535300D01*
X129969400Y-83535300D02*
X139844700Y-73660000D01*
D20*
X196850000Y-44450000D02*
X196850000Y-45720000D01*
X196850000Y-45720000D02*
X180340000Y-62230000D01*
D18*
X219854700Y-74930000D02*
X210667300Y-84117400D01*
X210667300Y-84117400D02*
X163106500Y-84117400D01*
X163106500Y-84117400D02*
X158605300Y-88618600D01*
X158605300Y-88618600D02*
X158605300Y-88900000D01*
X220980000Y-74930000D02*
X219854700Y-74930000D01*
X157480000Y-88900000D02*
X158605300Y-88900000D01*
X220980000Y-59690000D02*
X220980000Y-60815300D01*
X154940000Y-88900000D02*
X156065300Y-88900000D01*
X156065300Y-88900000D02*
X156065300Y-88618700D01*
X156065300Y-88618700D02*
X161017000Y-83667000D01*
X161017000Y-83667000D02*
X202505000Y-83667000D01*
X202505000Y-83667000D02*
X219854700Y-66317300D01*
X219854700Y-66317300D02*
X219854700Y-61659200D01*
X219854700Y-61659200D02*
X220698600Y-60815300D01*
X220698600Y-60815300D02*
X220980000Y-60815300D01*
X220980000Y-57150000D02*
X220980000Y-58275300D01*
X154940000Y-96520000D02*
X154940000Y-95394700D01*
X154940000Y-95394700D02*
X153763300Y-94218000D01*
X153763300Y-94218000D02*
X153763300Y-88419100D01*
X153763300Y-88419100D02*
X162087600Y-80094800D01*
X162087600Y-80094800D02*
X205440300Y-80094800D01*
X205440300Y-80094800D02*
X218337800Y-67197300D01*
X218337800Y-67197300D02*
X218337800Y-60636200D01*
X218337800Y-60636200D02*
X220698700Y-58275300D01*
X220698700Y-58275300D02*
X220980000Y-58275300D01*
X157480000Y-96520000D02*
X158605300Y-96520000D01*
X158605300Y-96520000D02*
X158605300Y-96238700D01*
X158605300Y-96238700D02*
X162719600Y-92124400D01*
X162719600Y-92124400D02*
X178893800Y-92124400D01*
X178893800Y-92124400D02*
X181731300Y-89286900D01*
X160020000Y-96520000D02*
X163428400Y-93111600D01*
X163428400Y-93111600D02*
X178932400Y-93111600D01*
X178932400Y-93111600D02*
X185892500Y-86151500D01*
X185892500Y-86151500D02*
X210789500Y-86151500D01*
X210789500Y-86151500D02*
X220264800Y-76676200D01*
X220264800Y-76676200D02*
X225976900Y-76676200D01*
X225976900Y-76676200D02*
X234161500Y-68491600D01*
X234161500Y-68491600D02*
X237723100Y-68491600D01*
X237723100Y-68491600D02*
X246524700Y-59690000D01*
X247650000Y-59690000D02*
X246524700Y-59690000D01*
X246524700Y-57150000D02*
X237634700Y-66040000D01*
X237634700Y-66040000D02*
X233451700Y-66040000D01*
X233451700Y-66040000D02*
X223293200Y-76198500D01*
X223293200Y-76198500D02*
X219468700Y-76198500D01*
X219468700Y-76198500D02*
X210743000Y-84924200D01*
X210743000Y-84924200D02*
X180010600Y-84924200D01*
X180010600Y-84924200D02*
X174116100Y-90818700D01*
X174116100Y-90818700D02*
X161511500Y-90818700D01*
X161511500Y-90818700D02*
X156311800Y-96018400D01*
X156311800Y-96018400D02*
X156311800Y-96984200D01*
X156311800Y-96984200D02*
X156972900Y-97645300D01*
X156972900Y-97645300D02*
X160590800Y-97645300D01*
X160590800Y-97645300D02*
X161434700Y-96801400D01*
X161434700Y-96801400D02*
X161434700Y-96520000D01*
X162560000Y-96520000D02*
X161434700Y-96520000D01*
X247650000Y-57150000D02*
X246524700Y-57150000D01*
X171305300Y-96520000D02*
X171305300Y-96247800D01*
X171305300Y-96247800D02*
X172158400Y-95394700D01*
X172158400Y-95394700D02*
X194521600Y-95394700D01*
X194521600Y-95394700D02*
X200703200Y-89213100D01*
X200703200Y-89213100D02*
X200703200Y-88493800D01*
X200703200Y-88493800D02*
X201422300Y-87774700D01*
X201422300Y-87774700D02*
X214447800Y-87774700D01*
X214447800Y-87774700D02*
X219031200Y-83191300D01*
X219031200Y-83191300D02*
X266433800Y-83191300D01*
X266433800Y-83191300D02*
X274230900Y-75394200D01*
X274230900Y-75394200D02*
X274230900Y-59174800D01*
X274230900Y-59174800D02*
X273331400Y-58275300D01*
X273331400Y-58275300D02*
X273050000Y-58275300D01*
X273050000Y-57150000D02*
X273050000Y-58275300D01*
X170180000Y-96520000D02*
X171305300Y-96520000D01*
X167640000Y-96520000D02*
X169666100Y-94493900D01*
X169666100Y-94493900D02*
X183457000Y-94493900D01*
X183457000Y-94493900D02*
X191077000Y-86873900D01*
X191077000Y-86873900D02*
X212885000Y-86873900D01*
X212885000Y-86873900D02*
X219620900Y-80138000D01*
X219620900Y-80138000D02*
X257463000Y-80138000D01*
X257463000Y-80138000D02*
X271924700Y-65676300D01*
X271924700Y-65676300D02*
X271924700Y-61659200D01*
X271924700Y-61659200D02*
X272768600Y-60815300D01*
X272768600Y-60815300D02*
X273050000Y-60815300D01*
X273050000Y-59690000D02*
X273050000Y-60815300D01*
X273050000Y-74930000D02*
X271924700Y-74930000D01*
X165100000Y-96520000D02*
X166225300Y-96520000D01*
X166225300Y-96520000D02*
X166225300Y-96801300D01*
X166225300Y-96801300D02*
X167081600Y-97657600D01*
X167081600Y-97657600D02*
X168105500Y-97657600D01*
X168105500Y-97657600D02*
X168836100Y-96927000D01*
X168836100Y-96927000D02*
X168836100Y-96237300D01*
X168836100Y-96237300D02*
X170129100Y-94944300D01*
X170129100Y-94944300D02*
X184134200Y-94944300D01*
X184134200Y-94944300D02*
X191754200Y-87324300D01*
X191754200Y-87324300D02*
X213399100Y-87324300D01*
X213399100Y-87324300D02*
X217982500Y-82740900D01*
X217982500Y-82740900D02*
X264113800Y-82740900D01*
X264113800Y-82740900D02*
X271924700Y-74930000D01*
X36830000Y-107950000D02*
X37955300Y-107950000D01*
X88900000Y-96520000D02*
X87774700Y-96520000D01*
X87774700Y-96520000D02*
X87774700Y-96801400D01*
X87774700Y-96801400D02*
X86930800Y-97645300D01*
X86930800Y-97645300D02*
X68898600Y-97645300D01*
X68898600Y-97645300D02*
X62833400Y-103710500D01*
X62833400Y-103710500D02*
X42194800Y-103710500D01*
X42194800Y-103710500D02*
X37955300Y-107950000D01*
X63500000Y-107950000D02*
X64625300Y-107950000D01*
X96520000Y-96520000D02*
X95394700Y-96520000D01*
X95394700Y-96520000D02*
X95394700Y-96801300D01*
X95394700Y-96801300D02*
X88490700Y-103705300D01*
X88490700Y-103705300D02*
X68870000Y-103705300D01*
X68870000Y-103705300D02*
X64625300Y-107950000D01*
X63500000Y-109364700D02*
X63218600Y-109364700D01*
X63218600Y-109364700D02*
X62374700Y-108520800D01*
X62374700Y-108520800D02*
X62374700Y-107481000D01*
X62374700Y-107481000D02*
X71309600Y-98546100D01*
X71309600Y-98546100D02*
X91109900Y-98546100D01*
X91109900Y-98546100D02*
X92854700Y-96801300D01*
X92854700Y-96801300D02*
X92854700Y-96520000D01*
X63500000Y-110490000D02*
X63500000Y-109364700D01*
X93980000Y-96520000D02*
X92854700Y-96520000D01*
X63500000Y-124604700D02*
X63218700Y-124604700D01*
X63218700Y-124604700D02*
X61920600Y-123306600D01*
X61920600Y-123306600D02*
X61920600Y-107287500D01*
X61920600Y-107287500D02*
X71112400Y-98095700D01*
X71112400Y-98095700D02*
X89020400Y-98095700D01*
X89020400Y-98095700D02*
X90314700Y-96801400D01*
X90314700Y-96801400D02*
X90314700Y-96520000D01*
X63500000Y-125730000D02*
X63500000Y-124604700D01*
X91440000Y-96520000D02*
X90314700Y-96520000D01*
X97600200Y-93822200D02*
X100496400Y-93822200D01*
X100496400Y-93822200D02*
X102751000Y-96076800D01*
X102751000Y-96076800D02*
X102751000Y-96736300D01*
X102751000Y-96736300D02*
X113964700Y-107950000D01*
X113964700Y-107950000D02*
X115570000Y-107950000D01*
X96983600Y-94667800D02*
X98811600Y-94667800D01*
X98811600Y-94667800D02*
X100365700Y-96221900D01*
X100365700Y-96221900D02*
X100365700Y-96879600D01*
X100365700Y-96879600D02*
X113976100Y-110490000D01*
X113976100Y-110490000D02*
X115570000Y-110490000D01*
X142240000Y-124604700D02*
X141958600Y-124604700D01*
X141958600Y-124604700D02*
X141114700Y-123760800D01*
X141114700Y-123760800D02*
X141114700Y-112515900D01*
X141114700Y-112515900D02*
X141870600Y-111760000D01*
X141870600Y-111760000D02*
X142626600Y-111760000D01*
X142626600Y-111760000D02*
X143862100Y-110524500D01*
X143862100Y-110524500D02*
X143862100Y-107341000D01*
X143862100Y-107341000D02*
X126916300Y-90395200D01*
X126916300Y-90395200D02*
X93779200Y-90395200D01*
X93779200Y-90395200D02*
X92565300Y-89181300D01*
X92565300Y-89181300D02*
X92565300Y-88900000D01*
X142240000Y-125730000D02*
X142240000Y-124604700D01*
X91440000Y-88900000D02*
X92565300Y-88900000D01*
X142240000Y-110490000D02*
X142240000Y-109364700D01*
X88900000Y-88900000D02*
X90025300Y-88900000D01*
X90025300Y-88900000D02*
X90025300Y-89181300D01*
X90025300Y-89181300D02*
X91774700Y-90930700D01*
X91774700Y-90930700D02*
X126814800Y-90930700D01*
X126814800Y-90930700D02*
X143365300Y-107481200D01*
X143365300Y-107481200D02*
X143365300Y-108520800D01*
X143365300Y-108520800D02*
X142521400Y-109364700D01*
X142521400Y-109364700D02*
X142240000Y-109364700D01*
X142240000Y-107950000D02*
X141114700Y-107950000D01*
X86360000Y-88900000D02*
X87485300Y-88900000D01*
X87485300Y-88900000D02*
X87485300Y-89181300D01*
X87485300Y-89181300D02*
X89685100Y-91381100D01*
X89685100Y-91381100D02*
X124545800Y-91381100D01*
X124545800Y-91381100D02*
X141114700Y-107950000D01*
X168910000Y-110490000D02*
X170035300Y-110490000D01*
X194310000Y-96520000D02*
X193184700Y-96520000D01*
X193184700Y-96520000D02*
X193184700Y-97223400D01*
X193184700Y-97223400D02*
X192762800Y-97645300D01*
X192762800Y-97645300D02*
X182880000Y-97645300D01*
X182880000Y-97645300D02*
X170035300Y-110490000D01*
X204470000Y-96520000D02*
X203344700Y-96520000D01*
X203344700Y-96520000D02*
X203344700Y-96801300D01*
X203344700Y-96801300D02*
X198817300Y-101328700D01*
X198817300Y-101328700D02*
X196855100Y-101328700D01*
X31750000Y-88900000D02*
X30585100Y-87735100D01*
X30585100Y-87735100D02*
X28726300Y-87735100D01*
X28726300Y-87735100D02*
X28038300Y-88423100D01*
X28038300Y-88423100D02*
X28038300Y-89385700D01*
X28038300Y-89385700D02*
X33634900Y-94982300D01*
X33634900Y-94982300D02*
X42043800Y-94982300D01*
X42043800Y-94982300D02*
X43180000Y-96118500D01*
X43180000Y-96118500D02*
X43180000Y-96845900D01*
X43180000Y-96845900D02*
X44442800Y-98108700D01*
X44442800Y-98108700D02*
X65729800Y-98108700D01*
X65729800Y-98108700D02*
X70750000Y-93088500D01*
X70750000Y-93088500D02*
X107484500Y-93088500D01*
X107484500Y-93088500D02*
X110634700Y-96238700D01*
X110634700Y-96238700D02*
X110634700Y-96520000D01*
X111760000Y-96520000D02*
X110634700Y-96520000D01*
X219710000Y-96520000D02*
X220835300Y-96520000D01*
X220835300Y-96520000D02*
X220835300Y-96238700D01*
X220835300Y-96238700D02*
X223094000Y-93980000D01*
X223094000Y-93980000D02*
X236220000Y-93980000D01*
X30335300Y-88900000D02*
X30335300Y-89181300D01*
X30335300Y-89181300D02*
X32237300Y-91083300D01*
X32237300Y-91083300D02*
X40683300Y-91083300D01*
X40683300Y-91083300D02*
X45720000Y-96120000D01*
X45720000Y-96120000D02*
X45720000Y-96845500D01*
X45720000Y-96845500D02*
X46529800Y-97655300D01*
X46529800Y-97655300D02*
X63630100Y-97655300D01*
X63630100Y-97655300D02*
X68647200Y-92638200D01*
X68647200Y-92638200D02*
X109497200Y-92638200D01*
X109497200Y-92638200D02*
X113174700Y-96315700D01*
X113174700Y-96315700D02*
X113174700Y-96520000D01*
X29210000Y-88900000D02*
X30335300Y-88900000D01*
X114300000Y-96520000D02*
X113174700Y-96520000D01*
X222250000Y-96520000D02*
X223375300Y-96520000D01*
X223375300Y-96520000D02*
X223375300Y-96238700D01*
X223375300Y-96238700D02*
X224227900Y-95386100D01*
X224227900Y-95386100D02*
X225883800Y-95386100D01*
X225883800Y-95386100D02*
X226066600Y-95568900D01*
X226066600Y-95568900D02*
X238441100Y-95568900D01*
X238441100Y-95568900D02*
X240030000Y-93980000D01*
M02*
