G04 #@! TF.GenerationSoftware,KiCad,Pcbnew,5.1.5-52549c5~84~ubuntu18.04.1*
G04 #@! TF.CreationDate,2020-03-09T20:44:28+01:00*
G04 #@! TF.ProjectId,solarOSE_kicad,736f6c61-724f-4534-955f-6b696361642e,rev?*
G04 #@! TF.SameCoordinates,Original*
G04 #@! TF.FileFunction,Copper,L2,Bot*
G04 #@! TF.FilePolarity,Positive*
%FSLAX46Y46*%
G04 Gerber Fmt 4.6, Leading zero omitted, Abs format (unit mm)*
G04 Created by KiCad (PCBNEW 5.1.5-52549c5~84~ubuntu18.04.1) date 2020-03-09 20:44:28*
%MOMM*%
%LPD*%
G04 APERTURE LIST*
%ADD10C,1.600000*%
%ADD11R,1.600000X1.600000*%
%ADD12C,2.499360*%
%ADD13R,2.499360X2.499360*%
%ADD14O,1.600000X1.600000*%
%ADD15R,4.500880X4.500880*%
%ADD16C,4.500880*%
%ADD17C,0.800000*%
%ADD18C,0.250000*%
%ADD19C,2.000000*%
%ADD20C,1.000000*%
G04 APERTURE END LIST*
D10*
X264160000Y-91130000D03*
D11*
X264160000Y-87630000D03*
D10*
X251460000Y-91130000D03*
D11*
X251460000Y-87630000D03*
D12*
X240030000Y-93980000D03*
D13*
X236220000Y-93980000D03*
D12*
X240030000Y-85090000D03*
D13*
X236220000Y-85090000D03*
D14*
X35560000Y-55880000D03*
X22860000Y-73660000D03*
X35560000Y-58420000D03*
X22860000Y-71120000D03*
X35560000Y-60960000D03*
X22860000Y-68580000D03*
X35560000Y-63500000D03*
X22860000Y-66040000D03*
X35560000Y-66040000D03*
X22860000Y-63500000D03*
X35560000Y-68580000D03*
X22860000Y-60960000D03*
X35560000Y-71120000D03*
X22860000Y-58420000D03*
X35560000Y-73660000D03*
D11*
X22860000Y-55880000D03*
X48260000Y-55880000D03*
D14*
X60960000Y-73660000D03*
X48260000Y-58420000D03*
X60960000Y-71120000D03*
X48260000Y-60960000D03*
X60960000Y-68580000D03*
X48260000Y-63500000D03*
X60960000Y-66040000D03*
X48260000Y-66040000D03*
X60960000Y-63500000D03*
X48260000Y-68580000D03*
X60960000Y-60960000D03*
X48260000Y-71120000D03*
X60960000Y-58420000D03*
X48260000Y-73660000D03*
X60960000Y-55880000D03*
D11*
X74930000Y-55880000D03*
D14*
X87630000Y-73660000D03*
X74930000Y-58420000D03*
X87630000Y-71120000D03*
X74930000Y-60960000D03*
X87630000Y-68580000D03*
X74930000Y-63500000D03*
X87630000Y-66040000D03*
X74930000Y-66040000D03*
X87630000Y-63500000D03*
X74930000Y-68580000D03*
X87630000Y-60960000D03*
X74930000Y-71120000D03*
X87630000Y-58420000D03*
X74930000Y-73660000D03*
X87630000Y-55880000D03*
X115570000Y-55880000D03*
X102870000Y-73660000D03*
X115570000Y-58420000D03*
X102870000Y-71120000D03*
X115570000Y-60960000D03*
X102870000Y-68580000D03*
X115570000Y-63500000D03*
X102870000Y-66040000D03*
X115570000Y-66040000D03*
X102870000Y-63500000D03*
X115570000Y-68580000D03*
X102870000Y-60960000D03*
X115570000Y-71120000D03*
X102870000Y-58420000D03*
X115570000Y-73660000D03*
D11*
X102870000Y-55880000D03*
D14*
X140970000Y-55880000D03*
X128270000Y-73660000D03*
X140970000Y-58420000D03*
X128270000Y-71120000D03*
X140970000Y-60960000D03*
X128270000Y-68580000D03*
X140970000Y-63500000D03*
X128270000Y-66040000D03*
X140970000Y-66040000D03*
X128270000Y-63500000D03*
X140970000Y-68580000D03*
X128270000Y-60960000D03*
X140970000Y-71120000D03*
X128270000Y-58420000D03*
X140970000Y-73660000D03*
D11*
X128270000Y-55880000D03*
X154940000Y-57150000D03*
D14*
X167640000Y-74930000D03*
X154940000Y-59690000D03*
X167640000Y-72390000D03*
X154940000Y-62230000D03*
X167640000Y-69850000D03*
X154940000Y-64770000D03*
X167640000Y-67310000D03*
X154940000Y-67310000D03*
X167640000Y-64770000D03*
X154940000Y-69850000D03*
X167640000Y-62230000D03*
X154940000Y-72390000D03*
X167640000Y-59690000D03*
X154940000Y-74930000D03*
X167640000Y-57150000D03*
X193040000Y-57150000D03*
X180340000Y-74930000D03*
X193040000Y-59690000D03*
X180340000Y-72390000D03*
X193040000Y-62230000D03*
X180340000Y-69850000D03*
X193040000Y-64770000D03*
X180340000Y-67310000D03*
X193040000Y-67310000D03*
X180340000Y-64770000D03*
X193040000Y-69850000D03*
X180340000Y-62230000D03*
X193040000Y-72390000D03*
X180340000Y-59690000D03*
X193040000Y-74930000D03*
D11*
X180340000Y-57150000D03*
X208280000Y-57150000D03*
D14*
X220980000Y-74930000D03*
X208280000Y-59690000D03*
X220980000Y-72390000D03*
X208280000Y-62230000D03*
X220980000Y-69850000D03*
X208280000Y-64770000D03*
X220980000Y-67310000D03*
X208280000Y-67310000D03*
X220980000Y-64770000D03*
X208280000Y-69850000D03*
X220980000Y-62230000D03*
X208280000Y-72390000D03*
X220980000Y-59690000D03*
X208280000Y-74930000D03*
X220980000Y-57150000D03*
D11*
X234950000Y-57150000D03*
D14*
X247650000Y-74930000D03*
X234950000Y-59690000D03*
X247650000Y-72390000D03*
X234950000Y-62230000D03*
X247650000Y-69850000D03*
X234950000Y-64770000D03*
X247650000Y-67310000D03*
X234950000Y-67310000D03*
X247650000Y-64770000D03*
X234950000Y-69850000D03*
X247650000Y-62230000D03*
X234950000Y-72390000D03*
X247650000Y-59690000D03*
X234950000Y-74930000D03*
X247650000Y-57150000D03*
X273050000Y-57150000D03*
X260350000Y-74930000D03*
X273050000Y-59690000D03*
X260350000Y-72390000D03*
X273050000Y-62230000D03*
X260350000Y-69850000D03*
X273050000Y-64770000D03*
X260350000Y-67310000D03*
X273050000Y-67310000D03*
X260350000Y-64770000D03*
X273050000Y-69850000D03*
X260350000Y-62230000D03*
X273050000Y-72390000D03*
X260350000Y-59690000D03*
X273050000Y-74930000D03*
D11*
X260350000Y-57150000D03*
X24130000Y-107950000D03*
D14*
X36830000Y-125730000D03*
X24130000Y-110490000D03*
X36830000Y-123190000D03*
X24130000Y-113030000D03*
X36830000Y-120650000D03*
X24130000Y-115570000D03*
X36830000Y-118110000D03*
X24130000Y-118110000D03*
X36830000Y-115570000D03*
X24130000Y-120650000D03*
X36830000Y-113030000D03*
X24130000Y-123190000D03*
X36830000Y-110490000D03*
X24130000Y-125730000D03*
X36830000Y-107950000D03*
X63500000Y-107950000D03*
X50800000Y-125730000D03*
X63500000Y-110490000D03*
X50800000Y-123190000D03*
X63500000Y-113030000D03*
X50800000Y-120650000D03*
X63500000Y-115570000D03*
X50800000Y-118110000D03*
X63500000Y-118110000D03*
X50800000Y-115570000D03*
X63500000Y-120650000D03*
X50800000Y-113030000D03*
X63500000Y-123190000D03*
X50800000Y-110490000D03*
X63500000Y-125730000D03*
D11*
X50800000Y-107950000D03*
X76200000Y-107950000D03*
D14*
X88900000Y-125730000D03*
X76200000Y-110490000D03*
X88900000Y-123190000D03*
X76200000Y-113030000D03*
X88900000Y-120650000D03*
X76200000Y-115570000D03*
X88900000Y-118110000D03*
X76200000Y-118110000D03*
X88900000Y-115570000D03*
X76200000Y-120650000D03*
X88900000Y-113030000D03*
X76200000Y-123190000D03*
X88900000Y-110490000D03*
X76200000Y-125730000D03*
X88900000Y-107950000D03*
X115570000Y-107950000D03*
X102870000Y-125730000D03*
X115570000Y-110490000D03*
X102870000Y-123190000D03*
X115570000Y-113030000D03*
X102870000Y-120650000D03*
X115570000Y-115570000D03*
X102870000Y-118110000D03*
X115570000Y-118110000D03*
X102870000Y-115570000D03*
X115570000Y-120650000D03*
X102870000Y-113030000D03*
X115570000Y-123190000D03*
X102870000Y-110490000D03*
X115570000Y-125730000D03*
D11*
X102870000Y-107950000D03*
X129540000Y-107950000D03*
D14*
X142240000Y-125730000D03*
X129540000Y-110490000D03*
X142240000Y-123190000D03*
X129540000Y-113030000D03*
X142240000Y-120650000D03*
X129540000Y-115570000D03*
X142240000Y-118110000D03*
X129540000Y-118110000D03*
X142240000Y-115570000D03*
X129540000Y-120650000D03*
X142240000Y-113030000D03*
X129540000Y-123190000D03*
X142240000Y-110490000D03*
X129540000Y-125730000D03*
X142240000Y-107950000D03*
X168910000Y-107950000D03*
X156210000Y-125730000D03*
X168910000Y-110490000D03*
X156210000Y-123190000D03*
X168910000Y-113030000D03*
X156210000Y-120650000D03*
X168910000Y-115570000D03*
X156210000Y-118110000D03*
X168910000Y-118110000D03*
X156210000Y-115570000D03*
X168910000Y-120650000D03*
X156210000Y-113030000D03*
X168910000Y-123190000D03*
X156210000Y-110490000D03*
X168910000Y-125730000D03*
D11*
X156210000Y-107950000D03*
X182880000Y-107950000D03*
D14*
X195580000Y-125730000D03*
X182880000Y-110490000D03*
X195580000Y-123190000D03*
X182880000Y-113030000D03*
X195580000Y-120650000D03*
X182880000Y-115570000D03*
X195580000Y-118110000D03*
X182880000Y-118110000D03*
X195580000Y-115570000D03*
X182880000Y-120650000D03*
X195580000Y-113030000D03*
X182880000Y-123190000D03*
X195580000Y-110490000D03*
X182880000Y-125730000D03*
X195580000Y-107950000D03*
X222250000Y-107950000D03*
X209550000Y-125730000D03*
X222250000Y-110490000D03*
X209550000Y-123190000D03*
X222250000Y-113030000D03*
X209550000Y-120650000D03*
X222250000Y-115570000D03*
X209550000Y-118110000D03*
X222250000Y-118110000D03*
X209550000Y-115570000D03*
X222250000Y-120650000D03*
X209550000Y-113030000D03*
X222250000Y-123190000D03*
X209550000Y-110490000D03*
X222250000Y-125730000D03*
D11*
X209550000Y-107950000D03*
X236220000Y-107950000D03*
D14*
X248920000Y-125730000D03*
X236220000Y-110490000D03*
X248920000Y-123190000D03*
X236220000Y-113030000D03*
X248920000Y-120650000D03*
X236220000Y-115570000D03*
X248920000Y-118110000D03*
X236220000Y-118110000D03*
X248920000Y-115570000D03*
X236220000Y-120650000D03*
X248920000Y-113030000D03*
X236220000Y-123190000D03*
X248920000Y-110490000D03*
X236220000Y-125730000D03*
X248920000Y-107950000D03*
X275590000Y-107950000D03*
X262890000Y-125730000D03*
X275590000Y-110490000D03*
X262890000Y-123190000D03*
X275590000Y-113030000D03*
X262890000Y-120650000D03*
X275590000Y-115570000D03*
X262890000Y-118110000D03*
X275590000Y-118110000D03*
X262890000Y-115570000D03*
X275590000Y-120650000D03*
X262890000Y-113030000D03*
X275590000Y-123190000D03*
X262890000Y-110490000D03*
X275590000Y-125730000D03*
D11*
X262890000Y-107950000D03*
D15*
X276860000Y-92710000D03*
D16*
X276860000Y-86360000D03*
D15*
X17780000Y-44450000D03*
D16*
X24130000Y-44450000D03*
X30480000Y-44450000D03*
X36830000Y-44450000D03*
X63500000Y-44450000D03*
X57150000Y-44450000D03*
X50800000Y-44450000D03*
D15*
X44450000Y-44450000D03*
X71120000Y-44450000D03*
D16*
X77470000Y-44450000D03*
X83820000Y-44450000D03*
X90170000Y-44450000D03*
D15*
X97790000Y-44450000D03*
D16*
X104140000Y-44450000D03*
X110490000Y-44450000D03*
X116840000Y-44450000D03*
X143510000Y-44450000D03*
X137160000Y-44450000D03*
X130810000Y-44450000D03*
D15*
X124460000Y-44450000D03*
X151130000Y-44450000D03*
D16*
X157480000Y-44450000D03*
X163830000Y-44450000D03*
X170180000Y-44450000D03*
X196850000Y-44450000D03*
X190500000Y-44450000D03*
X184150000Y-44450000D03*
D15*
X177800000Y-44450000D03*
X204470000Y-44450000D03*
D16*
X210820000Y-44450000D03*
X217170000Y-44450000D03*
X223520000Y-44450000D03*
X250190000Y-44450000D03*
X243840000Y-44450000D03*
X237490000Y-44450000D03*
D15*
X231140000Y-44450000D03*
X257810000Y-44450000D03*
D16*
X264160000Y-44450000D03*
X270510000Y-44450000D03*
X276860000Y-44450000D03*
X39370000Y-138430000D03*
X33020000Y-138430000D03*
X26670000Y-138430000D03*
D15*
X20320000Y-138430000D03*
X46990000Y-138430000D03*
D16*
X53340000Y-138430000D03*
X59690000Y-138430000D03*
X66040000Y-138430000D03*
X92710000Y-138430000D03*
X86360000Y-138430000D03*
X80010000Y-138430000D03*
D15*
X73660000Y-138430000D03*
X100330000Y-138430000D03*
D16*
X106680000Y-138430000D03*
X113030000Y-138430000D03*
X119380000Y-138430000D03*
X146050000Y-138430000D03*
X139700000Y-138430000D03*
X133350000Y-138430000D03*
D15*
X127000000Y-138430000D03*
X153670000Y-138430000D03*
D16*
X160020000Y-138430000D03*
X166370000Y-138430000D03*
X172720000Y-138430000D03*
X199390000Y-138430000D03*
X193040000Y-138430000D03*
X186690000Y-138430000D03*
D15*
X180340000Y-138430000D03*
D16*
X226060000Y-138430000D03*
X219710000Y-138430000D03*
X213360000Y-138430000D03*
D15*
X207010000Y-138430000D03*
X233680000Y-138430000D03*
D16*
X240030000Y-138430000D03*
X246380000Y-138430000D03*
X252730000Y-138430000D03*
X279400000Y-138430000D03*
X273050000Y-138430000D03*
X266700000Y-138430000D03*
D15*
X260350000Y-138430000D03*
D11*
X59690000Y-88900000D03*
D14*
X26670000Y-96520000D03*
X57150000Y-88900000D03*
X29210000Y-96520000D03*
X54610000Y-88900000D03*
X31750000Y-96520000D03*
X52070000Y-88900000D03*
X34290000Y-96520000D03*
X49530000Y-88900000D03*
X36830000Y-96520000D03*
X46990000Y-88900000D03*
X39370000Y-96520000D03*
X44450000Y-88900000D03*
X41910000Y-96520000D03*
X41910000Y-88900000D03*
X44450000Y-96520000D03*
X39370000Y-88900000D03*
X46990000Y-96520000D03*
X36830000Y-88900000D03*
X49530000Y-96520000D03*
X34290000Y-88900000D03*
X52070000Y-96520000D03*
X31750000Y-88900000D03*
X54610000Y-96520000D03*
X29210000Y-88900000D03*
X57150000Y-96520000D03*
X26670000Y-88900000D03*
X59690000Y-96520000D03*
X172720000Y-96520000D03*
X139700000Y-88900000D03*
X170180000Y-96520000D03*
X142240000Y-88900000D03*
X167640000Y-96520000D03*
X144780000Y-88900000D03*
X165100000Y-96520000D03*
X147320000Y-88900000D03*
X162560000Y-96520000D03*
X149860000Y-88900000D03*
X160020000Y-96520000D03*
X152400000Y-88900000D03*
X157480000Y-96520000D03*
X154940000Y-88900000D03*
X154940000Y-96520000D03*
X157480000Y-88900000D03*
X152400000Y-96520000D03*
X160020000Y-88900000D03*
X149860000Y-96520000D03*
X162560000Y-88900000D03*
X147320000Y-96520000D03*
X165100000Y-88900000D03*
X144780000Y-96520000D03*
X167640000Y-88900000D03*
X142240000Y-96520000D03*
X170180000Y-88900000D03*
X139700000Y-96520000D03*
D11*
X172720000Y-88900000D03*
X83820000Y-96520000D03*
D14*
X116840000Y-88900000D03*
X86360000Y-96520000D03*
X114300000Y-88900000D03*
X88900000Y-96520000D03*
X111760000Y-88900000D03*
X91440000Y-96520000D03*
X109220000Y-88900000D03*
X93980000Y-96520000D03*
X106680000Y-88900000D03*
X96520000Y-96520000D03*
X104140000Y-88900000D03*
X99060000Y-96520000D03*
X101600000Y-88900000D03*
X101600000Y-96520000D03*
X99060000Y-88900000D03*
X104140000Y-96520000D03*
X96520000Y-88900000D03*
X106680000Y-96520000D03*
X93980000Y-88900000D03*
X109220000Y-96520000D03*
X91440000Y-88900000D03*
X111760000Y-96520000D03*
X88900000Y-88900000D03*
X114300000Y-96520000D03*
X86360000Y-88900000D03*
X116840000Y-96520000D03*
X83820000Y-88900000D03*
X191770000Y-88900000D03*
X224790000Y-96520000D03*
X194310000Y-88900000D03*
X222250000Y-96520000D03*
X196850000Y-88900000D03*
X219710000Y-96520000D03*
X199390000Y-88900000D03*
X217170000Y-96520000D03*
X201930000Y-88900000D03*
X214630000Y-96520000D03*
X204470000Y-88900000D03*
X212090000Y-96520000D03*
X207010000Y-88900000D03*
X209550000Y-96520000D03*
X209550000Y-88900000D03*
X207010000Y-96520000D03*
X212090000Y-88900000D03*
X204470000Y-96520000D03*
X214630000Y-88900000D03*
X201930000Y-96520000D03*
X217170000Y-88900000D03*
X199390000Y-96520000D03*
X219710000Y-88900000D03*
X196850000Y-96520000D03*
X222250000Y-88900000D03*
X194310000Y-96520000D03*
X224790000Y-88900000D03*
D11*
X191770000Y-96520000D03*
D17*
X38558400Y-77545500D03*
X241273600Y-61168100D03*
X37112700Y-78731700D03*
X123561800Y-60961000D03*
X122503400Y-62220900D03*
X181731300Y-89286900D03*
X97600200Y-93822200D03*
X96983600Y-94667800D03*
X196855100Y-101328700D03*
D18*
X35560000Y-55880000D02*
X35560000Y-57005300D01*
X35560000Y-57005300D02*
X35278700Y-57005300D01*
X35278700Y-57005300D02*
X34418700Y-57865300D01*
X34418700Y-57865300D02*
X34418700Y-58907200D01*
X34418700Y-58907200D02*
X35201500Y-59690000D01*
X35201500Y-59690000D02*
X35943500Y-59690000D01*
X35943500Y-59690000D02*
X38558400Y-62304900D01*
X38558400Y-62304900D02*
X38558400Y-77545500D01*
D19*
X260350000Y-87595700D02*
X263884300Y-91130000D01*
X263884300Y-91130000D02*
X264160000Y-91130000D01*
X260350000Y-74930000D02*
X260350000Y-87595700D01*
X260350000Y-87595700D02*
X256815700Y-91130000D01*
X256815700Y-91130000D02*
X251460000Y-91130000D01*
X128270000Y-73660000D02*
X130570300Y-73660000D01*
X154940000Y-74930000D02*
X152639700Y-74930000D01*
X152639700Y-74930000D02*
X151601200Y-75968500D01*
X151601200Y-75968500D02*
X132878800Y-75968500D01*
X132878800Y-75968500D02*
X130570300Y-73660000D01*
X210580300Y-74930000D02*
X215444300Y-79794000D01*
X215444300Y-79794000D02*
X227785700Y-79794000D01*
X227785700Y-79794000D02*
X232649700Y-74930000D01*
X208280000Y-74930000D02*
X210580300Y-74930000D01*
X234950000Y-74930000D02*
X232649700Y-74930000D01*
X276860000Y-92710000D02*
X273109300Y-92710000D01*
X273109300Y-92710000D02*
X271529300Y-91130000D01*
X271529300Y-91130000D02*
X264160000Y-91130000D01*
D18*
X57150000Y-88900000D02*
X57150000Y-87774700D01*
X57150000Y-87774700D02*
X66117300Y-78807400D01*
X66117300Y-78807400D02*
X66117300Y-43387200D01*
X66117300Y-43387200D02*
X63329000Y-40598900D01*
X63329000Y-40598900D02*
X43293000Y-40598900D01*
X43293000Y-40598900D02*
X41449400Y-42442500D01*
X41449400Y-42442500D02*
X41449400Y-52530600D01*
X41449400Y-52530600D02*
X35560000Y-58420000D01*
D19*
X36830000Y-81582500D02*
X37208800Y-81582500D01*
X37208800Y-81582500D02*
X45959700Y-72831600D01*
X45959700Y-72831600D02*
X45959700Y-71120000D01*
X25160300Y-71120000D02*
X35622800Y-81582500D01*
X35622800Y-81582500D02*
X36830000Y-81582500D01*
X36830000Y-81582500D02*
X36830000Y-86599700D01*
X209550000Y-123190000D02*
X207249700Y-123190000D01*
X209550000Y-107950000D02*
X207249700Y-107950000D01*
X207249700Y-107950000D02*
X207249700Y-123190000D01*
X106680000Y-101839700D02*
X102870000Y-105649700D01*
X106680000Y-98195200D02*
X106680000Y-101839700D01*
X106680000Y-101839700D02*
X121129400Y-101839700D01*
X121129400Y-101839700D02*
X127239700Y-107950000D01*
X129540000Y-123190000D02*
X127239700Y-123190000D01*
X129540000Y-107950000D02*
X127239700Y-107950000D01*
X127239700Y-107950000D02*
X127239700Y-123190000D01*
X130067500Y-107950000D02*
X129540000Y-107950000D01*
X130067500Y-107950000D02*
X131840300Y-107950000D01*
X102870000Y-107950000D02*
X102870000Y-105649700D01*
X106680000Y-96520000D02*
X106680000Y-98195200D01*
X36830000Y-88900000D02*
X36830000Y-86599700D01*
X237250300Y-72390000D02*
X240030000Y-75169700D01*
X240030000Y-75169700D02*
X240030000Y-85090000D01*
X234950000Y-72390000D02*
X237250300Y-72390000D01*
X144780000Y-96520000D02*
X144780000Y-94219700D01*
X144780000Y-94219700D02*
X145304800Y-94219700D01*
X145304800Y-94219700D02*
X149860000Y-89664500D01*
X149860000Y-89664500D02*
X149860000Y-88900000D01*
X144780000Y-96807500D02*
X144780000Y-96520000D01*
X144780000Y-96807500D02*
X144780000Y-97095000D01*
X142240000Y-96520000D02*
X144540300Y-96520000D01*
X144780000Y-97095000D02*
X144540300Y-96855300D01*
X144540300Y-96855300D02*
X144540300Y-96520000D01*
X144780000Y-97095000D02*
X144780000Y-97670100D01*
X36830000Y-88900000D02*
X36830000Y-91200300D01*
X36830000Y-91200300D02*
X35919500Y-91200300D01*
X35919500Y-91200300D02*
X31750000Y-95369800D01*
X29210000Y-96520000D02*
X31510300Y-96520000D01*
X31750000Y-95369800D02*
X31510300Y-95609500D01*
X31510300Y-95609500D02*
X31510300Y-96520000D01*
X31750000Y-96520000D02*
X31750000Y-95369800D01*
X26670000Y-97670100D02*
X26670000Y-103109700D01*
X26670000Y-103109700D02*
X24130000Y-105649700D01*
X26909700Y-96520000D02*
X26909700Y-97430400D01*
X26909700Y-97430400D02*
X26670000Y-97670100D01*
X24130000Y-107950000D02*
X24130000Y-105649700D01*
X208280000Y-72390000D02*
X210580300Y-72390000D01*
X210580300Y-72390000D02*
X215116500Y-72390000D01*
X215116500Y-72390000D02*
X220018100Y-77291600D01*
X220018100Y-77291600D02*
X224469200Y-77291600D01*
X224469200Y-77291600D02*
X229370800Y-72390000D01*
X229370800Y-72390000D02*
X234950000Y-72390000D01*
X22860000Y-71120000D02*
X25160300Y-71120000D01*
X48260000Y-71120000D02*
X45959700Y-71120000D01*
X29210000Y-96520000D02*
X26909700Y-96520000D01*
X26670000Y-96520000D02*
X26670000Y-97670100D01*
X156210000Y-107950000D02*
X153909700Y-107950000D01*
X142240000Y-96520000D02*
X142240000Y-98820300D01*
X142240000Y-98820300D02*
X140970000Y-98820300D01*
X140970000Y-98820300D02*
X131840300Y-107950000D01*
X106680000Y-96520000D02*
X106680000Y-94219700D01*
X111760000Y-91200300D02*
X116840000Y-91200300D01*
X111760000Y-90575200D02*
X111760000Y-91200300D01*
X106680000Y-94219700D02*
X108740600Y-94219700D01*
X108740600Y-94219700D02*
X111760000Y-91200300D01*
X116840000Y-88900000D02*
X116840000Y-86599700D01*
X128270000Y-71120000D02*
X125969700Y-71120000D01*
X125969700Y-71120000D02*
X123015600Y-74074100D01*
X123015600Y-74074100D02*
X123015600Y-80424100D01*
X123015600Y-80424100D02*
X116840000Y-86599700D01*
X258049700Y-72390000D02*
X251460000Y-78979700D01*
X251460000Y-78979700D02*
X251460000Y-85329700D01*
X251460000Y-87630000D02*
X251460000Y-85329700D01*
X260350000Y-72390000D02*
X258049700Y-72390000D01*
X153909700Y-107950000D02*
X153909700Y-106799800D01*
X153909700Y-106799800D02*
X144780000Y-97670100D01*
X50800000Y-107950000D02*
X53100300Y-107950000D01*
X76200000Y-107950000D02*
X73899700Y-107950000D01*
X73899700Y-107950000D02*
X71599400Y-105649700D01*
X71599400Y-105649700D02*
X55400600Y-105649700D01*
X55400600Y-105649700D02*
X53100300Y-107950000D01*
X116840000Y-88900000D02*
X116840000Y-91200300D01*
X111760000Y-88900000D02*
X111760000Y-90575200D01*
D20*
X35560000Y-63500000D02*
X35560000Y-60960000D01*
X17780000Y-44450000D02*
X17780000Y-63500000D01*
X17780000Y-63500000D02*
X22860000Y-68580000D01*
X24130000Y-44450000D02*
X19810600Y-48769400D01*
X19810600Y-48769400D02*
X19810600Y-62990600D01*
X19810600Y-62990600D02*
X22860000Y-66040000D01*
D18*
X39370000Y-88900000D02*
X40495300Y-88900000D01*
X40495300Y-88900000D02*
X40495300Y-88618700D01*
X40495300Y-88618700D02*
X57994000Y-71120000D01*
X57994000Y-71120000D02*
X60960000Y-71120000D01*
X34290000Y-95394700D02*
X34993300Y-95394700D01*
X34993300Y-95394700D02*
X39370000Y-91018000D01*
X39370000Y-91018000D02*
X39370000Y-88900000D01*
X34290000Y-96520000D02*
X34290000Y-95394700D01*
X247650000Y-67310000D02*
X246524700Y-67310000D01*
X246524700Y-67310000D02*
X246524700Y-66419200D01*
X246524700Y-66419200D02*
X241273600Y-61168100D01*
X247650000Y-69850000D02*
X247650000Y-67310000D01*
X193040000Y-72390000D02*
X191914700Y-72390000D01*
X191914700Y-72390000D02*
X187943200Y-76361500D01*
X187943200Y-76361500D02*
X172736800Y-76361500D01*
X172736800Y-76361500D02*
X168765300Y-72390000D01*
X193040000Y-72390000D02*
X193040000Y-69850000D01*
X167640000Y-72390000D02*
X168765300Y-72390000D01*
X88900000Y-118110000D02*
X84945300Y-118110000D01*
X84945300Y-118110000D02*
X77325300Y-110490000D01*
X76200000Y-110490000D02*
X77325300Y-110490000D01*
X88900000Y-118110000D02*
X88900000Y-120650000D01*
X275590000Y-118110000D02*
X275590000Y-116984700D01*
X275590000Y-116984700D02*
X275871300Y-116984700D01*
X275871300Y-116984700D02*
X279771600Y-113084400D01*
X279771600Y-113084400D02*
X279771600Y-79955600D01*
X279771600Y-79955600D02*
X273331300Y-73515300D01*
X273331300Y-73515300D02*
X273050000Y-73515300D01*
X275590000Y-118110000D02*
X275590000Y-120650000D01*
X273050000Y-72390000D02*
X273050000Y-73515300D01*
X222250000Y-88900000D02*
X220812900Y-87462900D01*
X220812900Y-87462900D02*
X218607100Y-87462900D01*
X218607100Y-87462900D02*
X217170000Y-88900000D01*
X147320000Y-96520000D02*
X147320000Y-95394700D01*
X147320000Y-95394700D02*
X152400000Y-90314700D01*
X152400000Y-90314700D02*
X152400000Y-88900000D01*
X63500000Y-118110000D02*
X67454700Y-118110000D01*
X67454700Y-118110000D02*
X75074700Y-110490000D01*
X76200000Y-110490000D02*
X75074700Y-110490000D01*
X63500000Y-118110000D02*
X63500000Y-119524700D01*
X248920000Y-118110000D02*
X247794700Y-118110000D01*
X236220000Y-110490000D02*
X240174700Y-110490000D01*
X240174700Y-110490000D02*
X247794700Y-118110000D01*
X220980000Y-69850000D02*
X220980000Y-72390000D01*
X212090000Y-96520000D02*
X210964700Y-96520000D01*
X209550000Y-110490000D02*
X211193500Y-108846500D01*
X211193500Y-108846500D02*
X211193500Y-102503700D01*
X211193500Y-102503700D02*
X205884400Y-97194600D01*
X205884400Y-97194600D02*
X205884400Y-96050800D01*
X205884400Y-96050800D02*
X206540500Y-95394700D01*
X206540500Y-95394700D02*
X210120800Y-95394700D01*
X210120800Y-95394700D02*
X210964700Y-96238600D01*
X210964700Y-96238600D02*
X210964700Y-96520000D01*
X195580000Y-118110000D02*
X191625300Y-118110000D01*
X191625300Y-118110000D02*
X184005300Y-110490000D01*
X182880000Y-110490000D02*
X184005300Y-110490000D01*
X195580000Y-118110000D02*
X195580000Y-120650000D01*
X247650000Y-73515300D02*
X247368600Y-73515300D01*
X247368600Y-73515300D02*
X245858600Y-75025300D01*
X245858600Y-75025300D02*
X245858600Y-81947700D01*
X245858600Y-81947700D02*
X240841100Y-86965200D01*
X240841100Y-86965200D02*
X239229500Y-86965200D01*
X239229500Y-86965200D02*
X237795000Y-85530700D01*
X237795000Y-85530700D02*
X237795000Y-85090000D01*
X156210000Y-110490000D02*
X160164700Y-110490000D01*
X160164700Y-110490000D02*
X167784700Y-118110000D01*
X142240000Y-118110000D02*
X138285300Y-118110000D01*
X138285300Y-118110000D02*
X130665300Y-110490000D01*
X129540000Y-110490000D02*
X130665300Y-110490000D01*
X142240000Y-118110000D02*
X142240000Y-120650000D01*
X104140000Y-96520000D02*
X104140000Y-95394700D01*
X104140000Y-95394700D02*
X104577300Y-94957400D01*
X104577300Y-94957400D02*
X104577300Y-93964700D01*
X104577300Y-93964700D02*
X108516700Y-90025300D01*
X108516700Y-90025300D02*
X109220000Y-90025300D01*
X102870000Y-110490000D02*
X101216500Y-108836500D01*
X101216500Y-108836500D02*
X101216500Y-100619400D01*
X101216500Y-100619400D02*
X104140000Y-97695900D01*
X104140000Y-97695900D02*
X104140000Y-96520000D01*
X109220000Y-88900000D02*
X109220000Y-90025300D01*
X51925300Y-110490000D02*
X59545300Y-118110000D01*
X59545300Y-118110000D02*
X63500000Y-118110000D01*
X63500000Y-120650000D02*
X63500000Y-119524700D01*
X35560000Y-68580000D02*
X35560000Y-66040000D01*
X35560000Y-71120000D02*
X35560000Y-68580000D01*
X115570000Y-71120000D02*
X115570000Y-72245300D01*
X113761800Y-87236500D02*
X114300000Y-87774700D01*
X109220000Y-88900000D02*
X110883500Y-87236500D01*
X110883500Y-87236500D02*
X113761800Y-87236500D01*
X115570000Y-72245300D02*
X115851300Y-72245300D01*
X115851300Y-72245300D02*
X116702400Y-73096400D01*
X116702400Y-73096400D02*
X116702400Y-84295900D01*
X116702400Y-84295900D02*
X113761800Y-87236500D01*
X115570000Y-68580000D02*
X115570000Y-66040000D01*
X140970000Y-68580000D02*
X140970000Y-66040000D01*
X140970000Y-71120000D02*
X140970000Y-68580000D01*
X193040000Y-69850000D02*
X193040000Y-67310000D01*
X273050000Y-69850000D02*
X273050000Y-67310000D01*
X273050000Y-72390000D02*
X273050000Y-69850000D01*
X63500000Y-123190000D02*
X63500000Y-120650000D01*
X50800000Y-110490000D02*
X51925300Y-110490000D01*
X115570000Y-118110000D02*
X111615300Y-118110000D01*
X111615300Y-118110000D02*
X103995300Y-110490000D01*
X102870000Y-110490000D02*
X103995300Y-110490000D01*
X115570000Y-120650000D02*
X115570000Y-118110000D01*
X115570000Y-123190000D02*
X115570000Y-120650000D01*
X168910000Y-120650000D02*
X168910000Y-118110000D01*
X168910000Y-123190000D02*
X168910000Y-120650000D01*
X168910000Y-118110000D02*
X167784700Y-118110000D01*
X222250000Y-120650000D02*
X222250000Y-118110000D01*
X222250000Y-123190000D02*
X222250000Y-120650000D01*
X275590000Y-123190000D02*
X275590000Y-120650000D01*
X60960000Y-68580000D02*
X60960000Y-71120000D01*
X60960000Y-66040000D02*
X60960000Y-68580000D01*
X87630000Y-68580000D02*
X87630000Y-71120000D01*
X87630000Y-66040000D02*
X87630000Y-68580000D01*
X167640000Y-69850000D02*
X167640000Y-72390000D01*
X167640000Y-67310000D02*
X167640000Y-69850000D01*
X220980000Y-67310000D02*
X220980000Y-69850000D01*
X247650000Y-72390000D02*
X247650000Y-73515300D01*
X247650000Y-69850000D02*
X247650000Y-72390000D01*
X236220000Y-85090000D02*
X237795000Y-85090000D01*
X36830000Y-118110000D02*
X36830000Y-120650000D01*
X36830000Y-120650000D02*
X36830000Y-123190000D01*
X88900000Y-120650000D02*
X88900000Y-123190000D01*
X142240000Y-120650000D02*
X142240000Y-123190000D01*
X195580000Y-120650000D02*
X195580000Y-123190000D01*
X248920000Y-118110000D02*
X250045300Y-118110000D01*
X250045300Y-118110000D02*
X257665300Y-110490000D01*
X257665300Y-110490000D02*
X262890000Y-110490000D01*
X248920000Y-118110000D02*
X248920000Y-120650000D01*
X114300000Y-88900000D02*
X114300000Y-87774700D01*
D20*
X30480000Y-44450000D02*
X21056400Y-53873600D01*
X21056400Y-53873600D02*
X21056400Y-61696400D01*
X21056400Y-61696400D02*
X22860000Y-63500000D01*
X36830000Y-44450000D02*
X36830000Y-46990000D01*
X36830000Y-46990000D02*
X22860000Y-60960000D01*
D18*
X35560000Y-73660000D02*
X35560000Y-74785300D01*
X37112700Y-78731700D02*
X37112700Y-76338000D01*
X37112700Y-76338000D02*
X35560000Y-74785300D01*
X60960000Y-73660000D02*
X60960000Y-78884700D01*
X60960000Y-78884700D02*
X52070000Y-87774700D01*
X52070000Y-88900000D02*
X52070000Y-87774700D01*
D20*
X63500000Y-44450000D02*
X60530300Y-41480300D01*
X60530300Y-41480300D02*
X55927700Y-41480300D01*
X55927700Y-41480300D02*
X53975000Y-43433000D01*
X53975000Y-43433000D02*
X53975000Y-55245000D01*
X53975000Y-55245000D02*
X48260000Y-60960000D01*
X57150000Y-44450000D02*
X57150000Y-54610000D01*
X57150000Y-54610000D02*
X48260000Y-63500000D01*
X50800000Y-44450000D02*
X46430700Y-48819300D01*
X46430700Y-48819300D02*
X46430700Y-64210700D01*
X46430700Y-64210700D02*
X48260000Y-66040000D01*
X60960000Y-60960000D02*
X60960000Y-63500000D01*
X44450000Y-44450000D02*
X44450000Y-64770000D01*
X44450000Y-64770000D02*
X48260000Y-68580000D01*
D18*
X60960000Y-58420000D02*
X60960000Y-59545300D01*
X49530000Y-88900000D02*
X49530000Y-83492500D01*
X49530000Y-83492500D02*
X60632500Y-72390000D01*
X60632500Y-72390000D02*
X61359000Y-72390000D01*
X61359000Y-72390000D02*
X62085300Y-71663700D01*
X62085300Y-71663700D02*
X62085300Y-60389200D01*
X62085300Y-60389200D02*
X61241400Y-59545300D01*
X61241400Y-59545300D02*
X60960000Y-59545300D01*
X46990000Y-88900000D02*
X48115300Y-88900000D01*
X60960000Y-55880000D02*
X60960000Y-57005300D01*
X60960000Y-57005300D02*
X61241300Y-57005300D01*
X61241300Y-57005300D02*
X62571600Y-58335600D01*
X62571600Y-58335600D02*
X62571600Y-79138200D01*
X62571600Y-79138200D02*
X53340000Y-88369800D01*
X53340000Y-88369800D02*
X53340000Y-89296400D01*
X53340000Y-89296400D02*
X52611000Y-90025400D01*
X52611000Y-90025400D02*
X49047800Y-90025400D01*
X49047800Y-90025400D02*
X48115300Y-89092900D01*
X48115300Y-89092900D02*
X48115300Y-88900000D01*
X44450000Y-88900000D02*
X46486500Y-90936500D01*
X46486500Y-90936500D02*
X61056800Y-90936500D01*
X61056800Y-90936500D02*
X78333300Y-73660000D01*
X78333300Y-73660000D02*
X86504700Y-73660000D01*
X87630000Y-73660000D02*
X86504700Y-73660000D01*
D20*
X90170000Y-44450000D02*
X90170000Y-45720000D01*
X90170000Y-45720000D02*
X74930000Y-60960000D01*
X83820000Y-44450000D02*
X83311000Y-44450000D01*
X83311000Y-44450000D02*
X73129600Y-54631400D01*
X73129600Y-54631400D02*
X73129600Y-61699600D01*
X73129600Y-61699600D02*
X74930000Y-63500000D01*
X77470000Y-44450000D02*
X71914100Y-50005900D01*
X71914100Y-50005900D02*
X71914100Y-63024100D01*
X71914100Y-63024100D02*
X74930000Y-66040000D01*
X87630000Y-60960000D02*
X87630000Y-63500000D01*
X71120000Y-44450000D02*
X71120000Y-47400700D01*
X71120000Y-47400700D02*
X70701100Y-47819600D01*
X70701100Y-47819600D02*
X70701100Y-64351100D01*
X70701100Y-64351100D02*
X74930000Y-68580000D01*
D18*
X41910000Y-88900000D02*
X43035300Y-88900000D01*
X87630000Y-58420000D02*
X87630000Y-59545300D01*
X87630000Y-59545300D02*
X87348600Y-59545300D01*
X87348600Y-59545300D02*
X86504700Y-60389200D01*
X86504700Y-60389200D02*
X86504700Y-64145400D01*
X86504700Y-64145400D02*
X60174400Y-90475700D01*
X60174400Y-90475700D02*
X46922700Y-90475700D01*
X46922700Y-90475700D02*
X45720000Y-89273000D01*
X45720000Y-89273000D02*
X45720000Y-88541900D01*
X45720000Y-88541900D02*
X44952800Y-87774700D01*
X44952800Y-87774700D02*
X43879200Y-87774700D01*
X43879200Y-87774700D02*
X43035300Y-88618600D01*
X43035300Y-88618600D02*
X43035300Y-88900000D01*
X43035300Y-96520000D02*
X43035300Y-96324700D01*
X43035300Y-96324700D02*
X47962800Y-91397200D01*
X47962800Y-91397200D02*
X61233000Y-91397200D01*
X61233000Y-91397200D02*
X77068700Y-75561500D01*
X77068700Y-75561500D02*
X87320100Y-75561500D01*
X87320100Y-75561500D02*
X88755300Y-74126300D01*
X88755300Y-74126300D02*
X88755300Y-57849200D01*
X88755300Y-57849200D02*
X87911400Y-57005300D01*
X87911400Y-57005300D02*
X87630000Y-57005300D01*
X87630000Y-55880000D02*
X87630000Y-57005300D01*
X41910000Y-96520000D02*
X43035300Y-96520000D01*
X50655300Y-96520000D02*
X50655300Y-96335400D01*
X50655300Y-96335400D02*
X55143100Y-91847600D01*
X55143100Y-91847600D02*
X61419500Y-91847600D01*
X61419500Y-91847600D02*
X74658900Y-78608200D01*
X74658900Y-78608200D02*
X100001700Y-78608200D01*
X100001700Y-78608200D02*
X106538700Y-72071200D01*
X106538700Y-72071200D02*
X106538700Y-65755300D01*
X106538700Y-65755300D02*
X115288700Y-57005300D01*
X115288700Y-57005300D02*
X115570000Y-57005300D01*
X115570000Y-55880000D02*
X115570000Y-57005300D01*
X49530000Y-96520000D02*
X50655300Y-96520000D01*
X48115300Y-96520000D02*
X48115300Y-96802000D01*
X48115300Y-96802000D02*
X48958600Y-97645300D01*
X48958600Y-97645300D02*
X52542300Y-97645300D01*
X52542300Y-97645300D02*
X53340000Y-96847600D01*
X53340000Y-96847600D02*
X53340000Y-96178700D01*
X53340000Y-96178700D02*
X56618100Y-92900600D01*
X56618100Y-92900600D02*
X61003400Y-92900600D01*
X61003400Y-92900600D02*
X72775300Y-81128700D01*
X72775300Y-81128700D02*
X98118100Y-81128700D01*
X98118100Y-81128700D02*
X107148300Y-72098500D01*
X107148300Y-72098500D02*
X107148300Y-67685600D01*
X107148300Y-67685600D02*
X115288600Y-59545300D01*
X115288600Y-59545300D02*
X115570000Y-59545300D01*
X115570000Y-58420000D02*
X115570000Y-59545300D01*
X46990000Y-96520000D02*
X48115300Y-96520000D01*
D20*
X115570000Y-63500000D02*
X115570000Y-60960000D01*
X97790000Y-44450000D02*
X97790000Y-63500000D01*
X97790000Y-63500000D02*
X102870000Y-68580000D01*
X104140000Y-44450000D02*
X99814100Y-48775900D01*
X99814100Y-48775900D02*
X99814100Y-62984100D01*
X99814100Y-62984100D02*
X102870000Y-66040000D01*
X110490000Y-44450000D02*
X101065500Y-53874500D01*
X101065500Y-53874500D02*
X101065500Y-61695500D01*
X101065500Y-61695500D02*
X102870000Y-63500000D01*
X116840000Y-44450000D02*
X116840000Y-46990000D01*
X116840000Y-46990000D02*
X102870000Y-60960000D01*
D18*
X45575300Y-96520000D02*
X45575300Y-96801400D01*
X45575300Y-96801400D02*
X46869500Y-98095600D01*
X46869500Y-98095600D02*
X61561400Y-98095600D01*
X61561400Y-98095600D02*
X71923700Y-87733300D01*
X71923700Y-87733300D02*
X100371500Y-87733300D01*
X100371500Y-87733300D02*
X100371500Y-87733200D01*
X100371500Y-87733200D02*
X114444700Y-73660000D01*
X44450000Y-96520000D02*
X45575300Y-96520000D01*
X115570000Y-73660000D02*
X114444700Y-73660000D01*
X58275300Y-96520000D02*
X58275300Y-96265600D01*
X58275300Y-96265600D02*
X60739700Y-93801200D01*
X60739700Y-93801200D02*
X62013500Y-93801200D01*
X62013500Y-93801200D02*
X68586300Y-87228400D01*
X68586300Y-87228400D02*
X97195900Y-87228400D01*
X97195900Y-87228400D02*
X114704400Y-69719900D01*
X114704400Y-69719900D02*
X116034000Y-69719900D01*
X116034000Y-69719900D02*
X123561800Y-62192100D01*
X123561800Y-62192100D02*
X123561800Y-60961000D01*
X57150000Y-96520000D02*
X58275300Y-96520000D01*
X55735300Y-96520000D02*
X55735300Y-96238600D01*
X55735300Y-96238600D02*
X58623000Y-93350900D01*
X58623000Y-93350900D02*
X61826900Y-93350900D01*
X61826900Y-93350900D02*
X69364200Y-85813600D01*
X69364200Y-85813600D02*
X94071600Y-85813600D01*
X94071600Y-85813600D02*
X115115200Y-64770000D01*
X115115200Y-64770000D02*
X119954300Y-64770000D01*
X119954300Y-64770000D02*
X122503400Y-62220900D01*
X54610000Y-96520000D02*
X55735300Y-96520000D01*
D20*
X140970000Y-63500000D02*
X140970000Y-60960000D01*
X128270000Y-68580000D02*
X124674800Y-64984800D01*
X124674800Y-64984800D02*
X124674800Y-47615500D01*
X124674800Y-47615500D02*
X124460000Y-47400700D01*
X124460000Y-44450000D02*
X124460000Y-47400700D01*
X130810000Y-44450000D02*
X126440700Y-48819300D01*
X126440700Y-48819300D02*
X126440700Y-64210700D01*
X126440700Y-64210700D02*
X128270000Y-66040000D01*
X137160000Y-44450000D02*
X137160000Y-54610000D01*
X137160000Y-54610000D02*
X128270000Y-63500000D01*
X143510000Y-44450000D02*
X140513200Y-41453200D01*
X140513200Y-41453200D02*
X135983400Y-41453200D01*
X135983400Y-41453200D02*
X133985000Y-43451600D01*
X133985000Y-43451600D02*
X133985000Y-55245000D01*
X133985000Y-55245000D02*
X128270000Y-60960000D01*
D18*
X167640000Y-74930000D02*
X167640000Y-76055300D01*
X172720000Y-88900000D02*
X172720000Y-81135300D01*
X172720000Y-81135300D02*
X167640000Y-76055300D01*
D20*
X170180000Y-44450000D02*
X170180000Y-46990000D01*
X170180000Y-46990000D02*
X154940000Y-62230000D01*
X163830000Y-44450000D02*
X153135400Y-55144600D01*
X153135400Y-55144600D02*
X153135400Y-62965400D01*
X153135400Y-62965400D02*
X154940000Y-64770000D01*
X157480000Y-44450000D02*
X151899800Y-50030200D01*
X151899800Y-50030200D02*
X151899800Y-64269800D01*
X151899800Y-64269800D02*
X154940000Y-67310000D01*
X167640000Y-62230000D02*
X167640000Y-64770000D01*
X151130000Y-44450000D02*
X151130000Y-47400700D01*
X151130000Y-47400700D02*
X150694600Y-47836100D01*
X150694600Y-47836100D02*
X150694600Y-65604600D01*
X150694600Y-65604600D02*
X154940000Y-69850000D01*
D18*
X170180000Y-87774700D02*
X166514700Y-84109400D01*
X166514700Y-84109400D02*
X166514700Y-61659200D01*
X166514700Y-61659200D02*
X167358600Y-60815300D01*
X167358600Y-60815300D02*
X167640000Y-60815300D01*
X167640000Y-59690000D02*
X167640000Y-60815300D01*
X170180000Y-88900000D02*
X170180000Y-87774700D01*
X167640000Y-57150000D02*
X167640000Y-58275300D01*
X167640000Y-88900000D02*
X167640000Y-87774700D01*
X167640000Y-87774700D02*
X166064400Y-86199100D01*
X166064400Y-86199100D02*
X166064400Y-59569600D01*
X166064400Y-59569600D02*
X167358700Y-58275300D01*
X167358700Y-58275300D02*
X167640000Y-58275300D01*
X193040000Y-58275300D02*
X193321300Y-58275300D01*
X193321300Y-58275300D02*
X194651200Y-59605200D01*
X194651200Y-59605200D02*
X194651200Y-75557000D01*
X194651200Y-75557000D02*
X181646600Y-88561600D01*
X181646600Y-88561600D02*
X181430900Y-88561600D01*
X181430900Y-88561600D02*
X179054500Y-90938000D01*
X179054500Y-90938000D02*
X162902000Y-90938000D01*
X162902000Y-90938000D02*
X161145300Y-89181300D01*
X161145300Y-89181300D02*
X161145300Y-88900000D01*
X193040000Y-57150000D02*
X193040000Y-58275300D01*
X160020000Y-88900000D02*
X161145300Y-88900000D01*
X193040000Y-60815300D02*
X193321400Y-60815300D01*
X193321400Y-60815300D02*
X194165300Y-61659200D01*
X194165300Y-61659200D02*
X194165300Y-75406000D01*
X194165300Y-75406000D02*
X181460000Y-88111300D01*
X181460000Y-88111300D02*
X181244300Y-88111300D01*
X181244300Y-88111300D02*
X178879900Y-90475700D01*
X178879900Y-90475700D02*
X164979700Y-90475700D01*
X164979700Y-90475700D02*
X163685300Y-89181300D01*
X163685300Y-89181300D02*
X163685300Y-88900000D01*
X193040000Y-59690000D02*
X193040000Y-60815300D01*
X162560000Y-88900000D02*
X163685300Y-88900000D01*
D20*
X193040000Y-64770000D02*
X193040000Y-62230000D01*
X177800000Y-44450000D02*
X177800000Y-67310000D01*
X177800000Y-67310000D02*
X180340000Y-69850000D01*
X184150000Y-44450000D02*
X184150000Y-63500000D01*
X184150000Y-63500000D02*
X180340000Y-67310000D01*
X190500000Y-44450000D02*
X187532700Y-41482700D01*
X187532700Y-41482700D02*
X182884100Y-41482700D01*
X182884100Y-41482700D02*
X181185000Y-43181800D01*
X181185000Y-43181800D02*
X181185000Y-46445400D01*
X181185000Y-46445400D02*
X182169300Y-47429700D01*
X182169300Y-47429700D02*
X182169300Y-62940700D01*
X182169300Y-62940700D02*
X180340000Y-64770000D01*
D18*
X193040000Y-74930000D02*
X191914700Y-74930000D01*
X165100000Y-88900000D02*
X166225300Y-88900000D01*
X166225300Y-88900000D02*
X166225300Y-89181300D01*
X166225300Y-89181300D02*
X167069400Y-90025400D01*
X167069400Y-90025400D02*
X176819300Y-90025400D01*
X176819300Y-90025400D02*
X191914700Y-74930000D01*
D20*
X223520000Y-44450000D02*
X223520000Y-46990000D01*
X223520000Y-46990000D02*
X208280000Y-62230000D01*
X217170000Y-44450000D02*
X206477200Y-55142800D01*
X206477200Y-55142800D02*
X206477200Y-62967200D01*
X206477200Y-62967200D02*
X208280000Y-64770000D01*
X210820000Y-44450000D02*
X205247700Y-50022300D01*
X205247700Y-50022300D02*
X205247700Y-64277700D01*
X205247700Y-64277700D02*
X208280000Y-67310000D01*
X220980000Y-62230000D02*
X220980000Y-64770000D01*
X204470000Y-44450000D02*
X204470000Y-47400700D01*
X204470000Y-47400700D02*
X204047300Y-47823400D01*
X204047300Y-47823400D02*
X204047300Y-65617300D01*
X204047300Y-65617300D02*
X208280000Y-69850000D01*
D18*
X181731300Y-89286900D02*
X186059300Y-84958900D01*
X186059300Y-84958900D02*
X233006300Y-84958900D01*
X233006300Y-84958900D02*
X235469000Y-87421600D01*
X235469000Y-87421600D02*
X241021600Y-87421600D01*
X241021600Y-87421600D02*
X247650000Y-80793200D01*
X247650000Y-80793200D02*
X247650000Y-74930000D01*
D20*
X250190000Y-44450000D02*
X247193200Y-41453200D01*
X247193200Y-41453200D02*
X242663400Y-41453200D01*
X242663400Y-41453200D02*
X240665000Y-43451600D01*
X240665000Y-43451600D02*
X240665000Y-56515000D01*
X240665000Y-56515000D02*
X234950000Y-62230000D01*
X243840000Y-44450000D02*
X243840000Y-55880000D01*
X243840000Y-55880000D02*
X234950000Y-64770000D01*
X237490000Y-44450000D02*
X233120700Y-48819300D01*
X233120700Y-48819300D02*
X233120700Y-65480700D01*
X233120700Y-65480700D02*
X234950000Y-67310000D01*
X247650000Y-62230000D02*
X247650000Y-64770000D01*
X231140000Y-44450000D02*
X231140000Y-66040000D01*
X231140000Y-66040000D02*
X234950000Y-69850000D01*
X273050000Y-64770000D02*
X273050000Y-62230000D01*
X257810000Y-47400700D02*
X256092300Y-49118400D01*
X256092300Y-49118400D02*
X256092300Y-65592300D01*
X256092300Y-65592300D02*
X260350000Y-69850000D01*
X257810000Y-44450000D02*
X257810000Y-47400700D01*
X264160000Y-44450000D02*
X257304100Y-51305900D01*
X257304100Y-51305900D02*
X257304100Y-64264100D01*
X257304100Y-64264100D02*
X260350000Y-67310000D01*
X270510000Y-44450000D02*
X269997200Y-44450000D01*
X269997200Y-44450000D02*
X258520700Y-55926500D01*
X258520700Y-55926500D02*
X258520700Y-62940700D01*
X258520700Y-62940700D02*
X260350000Y-64770000D01*
X276860000Y-44450000D02*
X276860000Y-45720000D01*
X276860000Y-45720000D02*
X260350000Y-62230000D01*
D18*
X36830000Y-124604700D02*
X37111400Y-124604700D01*
X37111400Y-124604700D02*
X37955300Y-123760800D01*
X37955300Y-123760800D02*
X37955300Y-118304100D01*
X37955300Y-118304100D02*
X57263200Y-98996200D01*
X57263200Y-98996200D02*
X80218500Y-98996200D01*
X80218500Y-98996200D02*
X82694700Y-96520000D01*
X83820000Y-96520000D02*
X82694700Y-96520000D01*
X36830000Y-125730000D02*
X36830000Y-124604700D01*
D20*
X39370000Y-138430000D02*
X33620100Y-132680100D01*
X33620100Y-132680100D02*
X33620100Y-122520100D01*
X33620100Y-122520100D02*
X24130000Y-113030000D01*
X33020000Y-138430000D02*
X29070600Y-134480600D01*
X29070600Y-134480600D02*
X29070600Y-120510600D01*
X29070600Y-120510600D02*
X24130000Y-115570000D01*
X26670000Y-138430000D02*
X27186900Y-137913100D01*
X27186900Y-137913100D02*
X27186900Y-121166900D01*
X27186900Y-121166900D02*
X24130000Y-118110000D01*
X36830000Y-113030000D02*
X36830000Y-115570000D01*
X20320000Y-138430000D02*
X20320000Y-135479300D01*
X20320000Y-135479300D02*
X25958500Y-129840800D01*
X25958500Y-129840800D02*
X25958500Y-122373200D01*
X25958500Y-122373200D02*
X24235300Y-120650000D01*
X24235300Y-120650000D02*
X24130000Y-120650000D01*
D18*
X36830000Y-110490000D02*
X37955300Y-110490000D01*
X86360000Y-96520000D02*
X85234700Y-96520000D01*
X85234700Y-96520000D02*
X85234700Y-95816700D01*
X85234700Y-95816700D02*
X84812600Y-95394600D01*
X84812600Y-95394600D02*
X64976200Y-95394600D01*
X64976200Y-95394600D02*
X61824900Y-98545900D01*
X61824900Y-98545900D02*
X49899400Y-98545900D01*
X49899400Y-98545900D02*
X37955300Y-110490000D01*
D20*
X63500000Y-115570000D02*
X63500000Y-113030000D01*
X50800000Y-120650000D02*
X49299700Y-120650000D01*
X49299700Y-120650000D02*
X46990000Y-122959700D01*
X46990000Y-122959700D02*
X46990000Y-135479300D01*
X46990000Y-138430000D02*
X46990000Y-135479300D01*
X53340000Y-138430000D02*
X53340000Y-120650000D01*
X53340000Y-120650000D02*
X50800000Y-118110000D01*
X59690000Y-138430000D02*
X55055900Y-133795900D01*
X55055900Y-133795900D02*
X55055900Y-119825900D01*
X55055900Y-119825900D02*
X50800000Y-115570000D01*
X66040000Y-138430000D02*
X56256200Y-128646200D01*
X56256200Y-128646200D02*
X56256200Y-118486200D01*
X56256200Y-118486200D02*
X50800000Y-113030000D01*
D18*
X88900000Y-125730000D02*
X88900000Y-124604700D01*
X99060000Y-96520000D02*
X99060000Y-114726000D01*
X99060000Y-114726000D02*
X89181300Y-124604700D01*
X89181300Y-124604700D02*
X88900000Y-124604700D01*
D20*
X92710000Y-138430000D02*
X85759800Y-131479800D01*
X85759800Y-131479800D02*
X85759800Y-122589800D01*
X85759800Y-122589800D02*
X76200000Y-113030000D01*
X76200000Y-115570000D02*
X83959400Y-123329400D01*
X83959400Y-123329400D02*
X83959400Y-136029400D01*
X83959400Y-136029400D02*
X86360000Y-138430000D01*
X76200000Y-118110000D02*
X80010000Y-121920000D01*
X80010000Y-121920000D02*
X80010000Y-138430000D01*
X88900000Y-113030000D02*
X88900000Y-115570000D01*
X73660000Y-138430000D02*
X73660000Y-135479300D01*
X73660000Y-135479300D02*
X78017000Y-131122300D01*
X78017000Y-131122300D02*
X78017000Y-122361700D01*
X78017000Y-122361700D02*
X76305300Y-120650000D01*
X76305300Y-120650000D02*
X76200000Y-120650000D01*
D18*
X88900000Y-109364700D02*
X89094200Y-109364700D01*
X89094200Y-109364700D02*
X97790000Y-100668900D01*
X97790000Y-100668900D02*
X97790000Y-96175400D01*
X97790000Y-96175400D02*
X98570700Y-95394700D01*
X98570700Y-95394700D02*
X99630800Y-95394700D01*
X99630800Y-95394700D02*
X100474700Y-96238600D01*
X100474700Y-96238600D02*
X100474700Y-96520000D01*
X101600000Y-96520000D02*
X100474700Y-96520000D01*
X88900000Y-110490000D02*
X88900000Y-109364700D01*
X88900000Y-106824700D02*
X95394700Y-100330000D01*
X95394700Y-100330000D02*
X95394700Y-95988000D01*
X95394700Y-95988000D02*
X95989600Y-95393100D01*
X95989600Y-95393100D02*
X97699500Y-95393100D01*
X97699500Y-95393100D02*
X101600000Y-91492600D01*
X101600000Y-91492600D02*
X101600000Y-90025300D01*
X88900000Y-107950000D02*
X88900000Y-106824700D01*
X101600000Y-88900000D02*
X101600000Y-90025300D01*
X93980000Y-88900000D02*
X93980000Y-90025300D01*
X93980000Y-90025300D02*
X97600200Y-93645500D01*
X97600200Y-93645500D02*
X97600200Y-93822200D01*
X96520000Y-90025300D02*
X98373900Y-91879200D01*
X98373900Y-91879200D02*
X98373900Y-94075800D01*
X98373900Y-94075800D02*
X97781900Y-94667800D01*
X97781900Y-94667800D02*
X96983600Y-94667800D01*
X96520000Y-88900000D02*
X96520000Y-90025300D01*
D20*
X115570000Y-115570000D02*
X115570000Y-113030000D01*
X100330000Y-138430000D02*
X100330000Y-135479300D01*
X100330000Y-135479300D02*
X104687000Y-131122300D01*
X104687000Y-131122300D02*
X104687000Y-122361700D01*
X104687000Y-122361700D02*
X102975300Y-120650000D01*
X102975300Y-120650000D02*
X102870000Y-120650000D01*
X106680000Y-138430000D02*
X106680000Y-121920000D01*
X106680000Y-121920000D02*
X102870000Y-118110000D01*
X113030000Y-138430000D02*
X108323000Y-133723000D01*
X108323000Y-133723000D02*
X108323000Y-121023000D01*
X108323000Y-121023000D02*
X102870000Y-115570000D01*
X119380000Y-138430000D02*
X109523300Y-128573300D01*
X109523300Y-128573300D02*
X109523300Y-119683300D01*
X109523300Y-119683300D02*
X102870000Y-113030000D01*
D18*
X100185300Y-88900000D02*
X100185300Y-88618600D01*
X100185300Y-88618600D02*
X101029200Y-87774700D01*
X101029200Y-87774700D02*
X102141900Y-87774700D01*
X102141900Y-87774700D02*
X102726700Y-88359500D01*
X102726700Y-88359500D02*
X102726700Y-98154000D01*
X102726700Y-98154000D02*
X100766200Y-100114500D01*
X100766200Y-100114500D02*
X100766200Y-110020600D01*
X100766200Y-110020600D02*
X102636900Y-111891300D01*
X102636900Y-111891300D02*
X103376200Y-111891300D01*
X103376200Y-111891300D02*
X114444700Y-122959800D01*
X114444700Y-122959800D02*
X114444700Y-123760800D01*
X114444700Y-123760800D02*
X115288600Y-124604700D01*
X115288600Y-124604700D02*
X115570000Y-124604700D01*
X99060000Y-88900000D02*
X100185300Y-88900000D01*
X115570000Y-125730000D02*
X115570000Y-124604700D01*
D20*
X146050000Y-138430000D02*
X137899500Y-130279500D01*
X137899500Y-130279500D02*
X137899500Y-121389500D01*
X137899500Y-121389500D02*
X129540000Y-113030000D01*
X139700000Y-138430000D02*
X136596300Y-135326300D01*
X136596300Y-135326300D02*
X136596300Y-122626300D01*
X136596300Y-122626300D02*
X129540000Y-115570000D01*
X133350000Y-138430000D02*
X133350000Y-121920000D01*
X133350000Y-121920000D02*
X129540000Y-118110000D01*
X142240000Y-113030000D02*
X142240000Y-115570000D01*
X127000000Y-135479300D02*
X131540300Y-130939000D01*
X131540300Y-130939000D02*
X131540300Y-122361500D01*
X131540300Y-122361500D02*
X129828800Y-120650000D01*
X129828800Y-120650000D02*
X129540000Y-120650000D01*
X127000000Y-138430000D02*
X127000000Y-135479300D01*
D18*
X168910000Y-107950000D02*
X170035300Y-107950000D01*
X196850000Y-96520000D02*
X195724700Y-96520000D01*
X195724700Y-96520000D02*
X195724700Y-96238700D01*
X195724700Y-96238700D02*
X194880600Y-95394600D01*
X194880600Y-95394600D02*
X182590700Y-95394600D01*
X182590700Y-95394600D02*
X170035300Y-107950000D01*
D20*
X168910000Y-115570000D02*
X168910000Y-113030000D01*
X156210000Y-120650000D02*
X154709700Y-120650000D01*
X154709700Y-120650000D02*
X153670000Y-121689700D01*
X153670000Y-121689700D02*
X153670000Y-135479300D01*
X153670000Y-138430000D02*
X153670000Y-135479300D01*
X160020000Y-138430000D02*
X158062100Y-136472100D01*
X158062100Y-136472100D02*
X158062100Y-119962100D01*
X158062100Y-119962100D02*
X156210000Y-118110000D01*
X166370000Y-138430000D02*
X160462700Y-132522700D01*
X160462700Y-132522700D02*
X160462700Y-119822700D01*
X160462700Y-119822700D02*
X156210000Y-115570000D01*
X172720000Y-138430000D02*
X162560000Y-128270000D01*
X162560000Y-128270000D02*
X162560000Y-119380000D01*
X162560000Y-119380000D02*
X156210000Y-113030000D01*
D18*
X168910000Y-125730000D02*
X168910000Y-124604700D01*
X191770000Y-96520000D02*
X191770000Y-97645300D01*
X191770000Y-97645300D02*
X190644700Y-97645300D01*
X190644700Y-97645300D02*
X170035300Y-118254700D01*
X170035300Y-118254700D02*
X170035300Y-123760800D01*
X170035300Y-123760800D02*
X169191400Y-124604700D01*
X169191400Y-124604700D02*
X168910000Y-124604700D01*
X195580000Y-125730000D02*
X195580000Y-124604700D01*
X195580000Y-124604700D02*
X195861300Y-124604700D01*
X195861300Y-124604700D02*
X199390000Y-121076000D01*
X199390000Y-121076000D02*
X199390000Y-96520000D01*
D20*
X199390000Y-138430000D02*
X192439800Y-131479800D01*
X192439800Y-131479800D02*
X192439800Y-122589800D01*
X192439800Y-122589800D02*
X182880000Y-113030000D01*
X182880000Y-115570000D02*
X190639400Y-123329400D01*
X190639400Y-123329400D02*
X190639400Y-136029400D01*
X190639400Y-136029400D02*
X193040000Y-138430000D01*
X186690000Y-138430000D02*
X186690000Y-121920000D01*
X186690000Y-121920000D02*
X182880000Y-118110000D01*
X195580000Y-113030000D02*
X195580000Y-115570000D01*
X180340000Y-138430000D02*
X180340000Y-135479300D01*
X180340000Y-135479300D02*
X184697000Y-131122300D01*
X184697000Y-131122300D02*
X184697000Y-122361700D01*
X184697000Y-122361700D02*
X182985300Y-120650000D01*
X182985300Y-120650000D02*
X182880000Y-120650000D01*
D18*
X195580000Y-109364700D02*
X195861300Y-109364700D01*
X195861300Y-109364700D02*
X198104600Y-107121400D01*
X198104600Y-107121400D02*
X198104600Y-96204300D01*
X198104600Y-96204300D02*
X198925300Y-95383600D01*
X198925300Y-95383600D02*
X199949600Y-95383600D01*
X199949600Y-95383600D02*
X200804700Y-96238700D01*
X200804700Y-96238700D02*
X200804700Y-96520000D01*
X195580000Y-110490000D02*
X195580000Y-109364700D01*
X201930000Y-96520000D02*
X200804700Y-96520000D01*
X196855100Y-101328700D02*
X195580000Y-102603800D01*
X195580000Y-102603800D02*
X195580000Y-107950000D01*
X222250000Y-107950000D02*
X222250000Y-106824700D01*
X209550000Y-88900000D02*
X210675300Y-88900000D01*
X210675300Y-88900000D02*
X210675300Y-89181300D01*
X210675300Y-89181300D02*
X213354500Y-91860500D01*
X213354500Y-91860500D02*
X219182100Y-91860500D01*
X219182100Y-91860500D02*
X223375300Y-96053700D01*
X223375300Y-96053700D02*
X223375300Y-105699400D01*
X223375300Y-105699400D02*
X222250000Y-106824700D01*
X209550000Y-96520000D02*
X209550000Y-97645300D01*
X222250000Y-110490000D02*
X222250000Y-109364700D01*
X209550000Y-97645300D02*
X221269400Y-109364700D01*
X221269400Y-109364700D02*
X222250000Y-109364700D01*
D20*
X222250000Y-115570000D02*
X222250000Y-113030000D01*
X207010000Y-135479300D02*
X211550300Y-130939000D01*
X211550300Y-130939000D02*
X211550300Y-122361500D01*
X211550300Y-122361500D02*
X209838800Y-120650000D01*
X209838800Y-120650000D02*
X209550000Y-120650000D01*
X207010000Y-138430000D02*
X207010000Y-135479300D01*
X213360000Y-138430000D02*
X213360000Y-121920000D01*
X213360000Y-121920000D02*
X209550000Y-118110000D01*
X209550000Y-115570000D02*
X215212000Y-121232000D01*
X215212000Y-121232000D02*
X215212000Y-133932000D01*
X215212000Y-133932000D02*
X219710000Y-138430000D01*
X226060000Y-138430000D02*
X217049000Y-129419000D01*
X217049000Y-129419000D02*
X217049000Y-120529000D01*
X217049000Y-120529000D02*
X209550000Y-113030000D01*
D18*
X222250000Y-125730000D02*
X222250000Y-124604700D01*
X207010000Y-96520000D02*
X207010000Y-97645300D01*
X207010000Y-97645300D02*
X221124700Y-111760000D01*
X221124700Y-111760000D02*
X221124700Y-123760800D01*
X221124700Y-123760800D02*
X221968600Y-124604700D01*
X221968600Y-124604700D02*
X222250000Y-124604700D01*
X248920000Y-124604700D02*
X249201400Y-124604700D01*
X249201400Y-124604700D02*
X250045300Y-123760800D01*
X250045300Y-123760800D02*
X250045300Y-122723500D01*
X250045300Y-122723500D02*
X249241800Y-121920000D01*
X249241800Y-121920000D02*
X247974700Y-121920000D01*
X247974700Y-121920000D02*
X237814700Y-111760000D01*
X237814700Y-111760000D02*
X235874000Y-111760000D01*
X235874000Y-111760000D02*
X233637500Y-109523500D01*
X233637500Y-109523500D02*
X233637500Y-103708400D01*
X233637500Y-103708400D02*
X224462700Y-94533600D01*
X224462700Y-94533600D02*
X222532200Y-94533600D01*
X222532200Y-94533600D02*
X218474200Y-90475600D01*
X218474200Y-90475600D02*
X214614100Y-90475600D01*
X214614100Y-90475600D02*
X213360000Y-89221500D01*
X213360000Y-89221500D02*
X213360000Y-88572200D01*
X213360000Y-88572200D02*
X212536700Y-87748900D01*
X212536700Y-87748900D02*
X209005100Y-87748900D01*
X209005100Y-87748900D02*
X208135300Y-88618700D01*
X208135300Y-88618700D02*
X208135300Y-88900000D01*
X248920000Y-125730000D02*
X248920000Y-124604700D01*
X207010000Y-88900000D02*
X208135300Y-88900000D01*
D20*
X252730000Y-138430000D02*
X241496200Y-127196200D01*
X241496200Y-127196200D02*
X241496200Y-118306200D01*
X241496200Y-118306200D02*
X236220000Y-113030000D01*
X246380000Y-138430000D02*
X239924700Y-131974700D01*
X239924700Y-131974700D02*
X239924700Y-119274700D01*
X239924700Y-119274700D02*
X236220000Y-115570000D01*
X236220000Y-118110000D02*
X238072100Y-119962100D01*
X238072100Y-119962100D02*
X238072100Y-136472100D01*
X238072100Y-136472100D02*
X240030000Y-138430000D01*
X248920000Y-113030000D02*
X248920000Y-115570000D01*
X236220000Y-120650000D02*
X234719700Y-120650000D01*
X234719700Y-120650000D02*
X233680000Y-121689700D01*
X233680000Y-121689700D02*
X233680000Y-135479300D01*
X233680000Y-138430000D02*
X233680000Y-135479300D01*
D18*
X204470000Y-88900000D02*
X205595300Y-88900000D01*
X205595300Y-88900000D02*
X205595300Y-88618700D01*
X205595300Y-88618700D02*
X206954900Y-87259100D01*
X206954900Y-87259100D02*
X214585400Y-87259100D01*
X214585400Y-87259100D02*
X215900000Y-88573700D01*
X215900000Y-88573700D02*
X215900000Y-89299600D01*
X215900000Y-89299600D02*
X216625700Y-90025300D01*
X216625700Y-90025300D02*
X218660800Y-90025300D01*
X218660800Y-90025300D02*
X222452900Y-93817400D01*
X222452900Y-93817400D02*
X224580400Y-93817400D01*
X224580400Y-93817400D02*
X241253000Y-110490000D01*
X241253000Y-110490000D02*
X248920000Y-110490000D01*
X248920000Y-107950000D02*
X245467400Y-107950000D01*
X245467400Y-107950000D02*
X224320900Y-86803500D01*
X224320900Y-86803500D02*
X204870500Y-86803500D01*
X204870500Y-86803500D02*
X203055300Y-88618700D01*
X203055300Y-88618700D02*
X203055300Y-88900000D01*
X201930000Y-88900000D02*
X203055300Y-88900000D01*
X195435300Y-88900000D02*
X195435300Y-88695500D01*
X195435300Y-88695500D02*
X198721500Y-85409300D01*
X198721500Y-85409300D02*
X227417000Y-85409300D01*
X227417000Y-85409300D02*
X230222000Y-88214300D01*
X230222000Y-88214300D02*
X239345200Y-88214300D01*
X239345200Y-88214300D02*
X243886200Y-92755300D01*
X243886200Y-92755300D02*
X259270000Y-92755300D01*
X259270000Y-92755300D02*
X274464700Y-107950000D01*
X275590000Y-107950000D02*
X274464700Y-107950000D01*
X194310000Y-88900000D02*
X195435300Y-88900000D01*
X275590000Y-110490000D02*
X274464700Y-110490000D01*
X196850000Y-88900000D02*
X197975300Y-88900000D01*
X197975300Y-88900000D02*
X197975300Y-88618700D01*
X197975300Y-88618700D02*
X200703200Y-85890800D01*
X200703200Y-85890800D02*
X226251200Y-85890800D01*
X226251200Y-85890800D02*
X230851200Y-90490800D01*
X230851200Y-90490800D02*
X240037400Y-90490800D01*
X240037400Y-90490800D02*
X251194000Y-101647400D01*
X251194000Y-101647400D02*
X265622100Y-101647400D01*
X265622100Y-101647400D02*
X274464700Y-110490000D01*
D20*
X275590000Y-115570000D02*
X275590000Y-113030000D01*
X260350000Y-138430000D02*
X260350000Y-135479300D01*
X260350000Y-135479300D02*
X264707000Y-131122300D01*
X264707000Y-131122300D02*
X264707000Y-122361700D01*
X264707000Y-122361700D02*
X262995300Y-120650000D01*
X262995300Y-120650000D02*
X262890000Y-120650000D01*
X266700000Y-138430000D02*
X266700000Y-121920000D01*
X266700000Y-121920000D02*
X262890000Y-118110000D01*
X262890000Y-115570000D02*
X271849700Y-124529700D01*
X271849700Y-124529700D02*
X271849700Y-137229700D01*
X271849700Y-137229700D02*
X273050000Y-138430000D01*
X279400000Y-138430000D02*
X273639300Y-132669300D01*
X273639300Y-132669300D02*
X273639300Y-123779300D01*
X273639300Y-123779300D02*
X262890000Y-113030000D01*
D18*
X200515300Y-88900000D02*
X200515300Y-88618600D01*
X200515300Y-88618600D02*
X202792700Y-86341200D01*
X202792700Y-86341200D02*
X225987900Y-86341200D01*
X225987900Y-86341200D02*
X231706900Y-92060200D01*
X231706900Y-92060200D02*
X240473000Y-92060200D01*
X240473000Y-92060200D02*
X254937400Y-106524600D01*
X254937400Y-106524600D02*
X263980300Y-106524600D01*
X263980300Y-106524600D02*
X274464700Y-117009000D01*
X274464700Y-117009000D02*
X274464700Y-123760800D01*
X274464700Y-123760800D02*
X275308600Y-124604700D01*
X275308600Y-124604700D02*
X275590000Y-124604700D01*
X199390000Y-88900000D02*
X200515300Y-88900000D01*
X275590000Y-125730000D02*
X275590000Y-124604700D01*
X145905300Y-88900000D02*
X145905300Y-88618700D01*
X145905300Y-88618700D02*
X147251600Y-87272400D01*
X147251600Y-87272400D02*
X154956300Y-87272400D01*
X154956300Y-87272400D02*
X156210000Y-88526100D01*
X156210000Y-88526100D02*
X156210000Y-89277700D01*
X156210000Y-89277700D02*
X161418700Y-94486400D01*
X161418700Y-94486400D02*
X216832400Y-94486400D01*
X216832400Y-94486400D02*
X218584700Y-96238700D01*
X218584700Y-96238700D02*
X218584700Y-96520000D01*
X144780000Y-88900000D02*
X145905300Y-88900000D01*
X219710000Y-96520000D02*
X218584700Y-96520000D01*
X144780000Y-88900000D02*
X143654700Y-88900000D01*
X111760000Y-96520000D02*
X112885300Y-96520000D01*
X112885300Y-96520000D02*
X112885300Y-96801300D01*
X112885300Y-96801300D02*
X113743400Y-97659400D01*
X113743400Y-97659400D02*
X135176600Y-97659400D01*
X135176600Y-97659400D02*
X143654700Y-89181300D01*
X143654700Y-89181300D02*
X143654700Y-88900000D01*
X222250000Y-96520000D02*
X221124700Y-96520000D01*
X221124700Y-96520000D02*
X221124700Y-96238700D01*
X221124700Y-96238700D02*
X217751500Y-92865500D01*
X217751500Y-92865500D02*
X162387700Y-92865500D01*
X162387700Y-92865500D02*
X158894600Y-89372400D01*
X158894600Y-89372400D02*
X158894600Y-88719900D01*
X158894600Y-88719900D02*
X156995800Y-86821100D01*
X156995800Y-86821100D02*
X144318900Y-86821100D01*
X144318900Y-86821100D02*
X142240000Y-88900000D01*
X141114700Y-88900000D02*
X141114700Y-89104600D01*
X141114700Y-89104600D02*
X134824600Y-95394700D01*
X134824600Y-95394700D02*
X116269200Y-95394700D01*
X116269200Y-95394700D02*
X115425300Y-96238600D01*
X115425300Y-96238600D02*
X115425300Y-96520000D01*
X114300000Y-96520000D02*
X115425300Y-96520000D01*
X142240000Y-88900000D02*
X141114700Y-88900000D01*
M02*
